<svg width="415" height="400" viewBox="0 0 415 400" fill="none" xmlns="http://www.w3.org/2000/svg">
<path fill-rule="evenodd" clip-rule="evenodd" d="M202.768 0.0673828C118 2.24423 46.3511 57.1636 19.4179 133.228L77.4222 148.902C96.8936 99.1823 143.942 63.2949 199.752 60.0567L202.768 0.0673828ZM338.578 148.902C319.106 99.1823 272.058 63.2949 216.248 60.0567L213.232 0.0673828C298 2.24423 369.649 57.1636 396.582 133.228L338.578 148.902ZM296.93 308.369C328.222 282.659 348.182 243.661 348.182 200C348.182 187.767 346.615 175.9 343.671 164.589L399.812 143.175C405.14 161.188 408 180.26 408 200C408 264.641 377.333 322.12 329.755 358.681L296.93 308.369ZM132.408 318.075C154.219 332.068 180.162 340.182 208 340.182C235.838 340.182 261.781 332.068 283.592 318.075L321.296 364.838C289.089 387.017 250.061 400 208 400C165.939 400 126.911 387.017 94.7044 364.838L132.408 318.075ZM72.3288 164.589C69.3847 175.9 67.8178 187.767 67.8178 200C67.8178 243.661 87.7777 282.659 119.07 308.369L86.2447 358.681C38.6665 322.12 8 264.641 8 200C8 180.26 10.8599 161.188 16.1879 143.175L72.3288 164.589Z" fill="#B1BCC7"/>
<path d="M158.654 364.58H155.813C155.775 364.288 155.698 364.025 155.58 363.79C155.463 363.555 155.308 363.354 155.114 363.188C154.921 363.021 154.692 362.894 154.427 362.807C154.165 362.716 153.876 362.671 153.558 362.671C152.993 362.671 152.506 362.809 152.097 363.085C151.692 363.362 151.379 363.762 151.16 364.284C150.944 364.807 150.836 365.44 150.836 366.182C150.836 366.955 150.946 367.603 151.165 368.125C151.389 368.644 151.701 369.036 152.103 369.301C152.508 369.563 152.987 369.693 153.54 369.693C153.851 369.693 154.133 369.654 154.387 369.574C154.645 369.495 154.87 369.379 155.063 369.228C155.26 369.072 155.421 368.885 155.546 368.665C155.675 368.442 155.764 368.19 155.813 367.909L158.654 367.926C158.605 368.442 158.455 368.949 158.205 369.449C157.959 369.949 157.62 370.406 157.188 370.818C156.756 371.228 156.23 371.553 155.609 371.796C154.991 372.038 154.283 372.159 153.484 372.159C152.431 372.159 151.487 371.928 150.654 371.466C149.825 371 149.169 370.322 148.688 369.432C148.207 368.542 147.967 367.459 147.967 366.182C147.967 364.902 148.211 363.817 148.7 362.926C149.188 362.036 149.849 361.36 150.683 360.898C151.516 360.436 152.45 360.205 153.484 360.205C154.188 360.205 154.84 360.303 155.438 360.5C156.037 360.693 156.563 360.978 157.018 361.353C157.472 361.724 157.842 362.18 158.126 362.722C158.41 363.264 158.586 363.883 158.654 364.58ZM164.337 372.165C163.421 372.165 162.633 371.978 161.974 371.603C161.318 371.224 160.813 370.697 160.457 370.023C160.104 369.345 159.928 368.559 159.928 367.665C159.928 366.767 160.104 365.981 160.457 365.307C160.813 364.629 161.318 364.103 161.974 363.728C162.633 363.349 163.421 363.159 164.337 363.159C165.254 363.159 166.04 363.349 166.695 363.728C167.354 364.103 167.86 364.629 168.212 365.307C168.568 365.981 168.746 366.767 168.746 367.665C168.746 368.559 168.568 369.345 168.212 370.023C167.86 370.697 167.354 371.224 166.695 371.603C166.04 371.978 165.254 372.165 164.337 372.165ZM164.354 370.068C164.688 370.068 164.97 369.966 165.201 369.762C165.432 369.557 165.608 369.273 165.729 368.909C165.854 368.546 165.917 368.125 165.917 367.648C165.917 367.163 165.854 366.739 165.729 366.375C165.608 366.012 165.432 365.728 165.201 365.523C164.97 365.318 164.688 365.216 164.354 365.216C164.01 365.216 163.718 365.318 163.479 365.523C163.245 365.728 163.065 366.012 162.94 366.375C162.818 366.739 162.758 367.163 162.758 367.648C162.758 368.125 162.818 368.546 162.94 368.909C163.065 369.273 163.245 369.557 163.479 369.762C163.718 369.966 164.01 370.068 164.354 370.068ZM172.948 367.023V372H170.17V363.273H172.812V364.875H172.908C173.102 364.341 173.431 363.923 173.897 363.62C174.363 363.313 174.918 363.159 175.562 363.159C176.175 363.159 176.708 363.298 177.158 363.574C177.613 363.847 177.965 364.229 178.215 364.722C178.469 365.21 178.594 365.782 178.59 366.438V372H175.812V366.983C175.816 366.498 175.692 366.12 175.442 365.847C175.196 365.574 174.853 365.438 174.414 365.438C174.122 365.438 173.865 365.502 173.641 365.631C173.422 365.756 173.251 365.936 173.13 366.171C173.013 366.406 172.952 366.69 172.948 367.023ZM187.93 365.938L185.379 366.006C185.352 365.824 185.28 365.663 185.163 365.523C185.045 365.379 184.892 365.267 184.702 365.188C184.517 365.104 184.301 365.063 184.055 365.063C183.733 365.063 183.458 365.127 183.231 365.256C183.007 365.385 182.897 365.559 182.901 365.779C182.897 365.949 182.966 366.097 183.106 366.222C183.25 366.347 183.505 366.447 183.873 366.523L185.555 366.841C186.426 367.008 187.074 367.284 187.498 367.671C187.926 368.057 188.142 368.568 188.146 369.205C188.142 369.803 187.964 370.324 187.612 370.767C187.263 371.21 186.786 371.555 186.18 371.801C185.574 372.044 184.88 372.165 184.1 372.165C182.854 372.165 181.871 371.909 181.151 371.398C180.435 370.883 180.026 370.193 179.924 369.33L182.668 369.262C182.729 369.58 182.886 369.822 183.14 369.989C183.394 370.156 183.718 370.239 184.112 370.239C184.468 370.239 184.757 370.173 184.981 370.04C185.204 369.907 185.318 369.731 185.322 369.512C185.318 369.315 185.231 369.157 185.06 369.04C184.89 368.919 184.623 368.824 184.259 368.756L182.737 368.466C181.862 368.307 181.21 368.014 180.782 367.585C180.354 367.154 180.142 366.604 180.146 365.938C180.142 365.354 180.297 364.856 180.612 364.443C180.926 364.027 181.373 363.709 181.952 363.489C182.532 363.269 183.216 363.159 184.004 363.159C185.185 363.159 186.117 363.407 186.799 363.904C187.481 364.396 187.858 365.074 187.93 365.938ZM195.144 368.233V363.273H197.917V372H195.269V370.375H195.178C194.985 370.909 194.656 371.334 194.19 371.648C193.728 371.959 193.169 372.114 192.513 372.114C191.919 372.114 191.396 371.978 190.945 371.705C190.495 371.432 190.144 371.051 189.894 370.563C189.644 370.07 189.517 369.495 189.513 368.835V363.273H192.292V368.29C192.296 368.764 192.421 369.137 192.667 369.409C192.913 369.682 193.248 369.818 193.673 369.818C193.949 369.818 194.197 369.758 194.417 369.637C194.64 369.512 194.817 369.332 194.945 369.097C195.078 368.858 195.144 368.57 195.144 368.233ZM202.464 360.364V372H199.685V360.364H202.464ZM209.158 363.273V365.318H203.653V363.273H209.158ZM204.806 361.182H207.585V369.256C207.585 369.426 207.611 369.565 207.664 369.671C207.721 369.773 207.802 369.847 207.908 369.892C208.014 369.934 208.141 369.955 208.289 369.955C208.395 369.955 208.507 369.945 208.624 369.926C208.746 369.904 208.836 369.885 208.897 369.87L209.317 371.875C209.185 371.913 208.997 371.96 208.755 372.017C208.516 372.074 208.23 372.11 207.897 372.125C207.246 372.156 206.687 372.08 206.221 371.898C205.759 371.712 205.405 371.424 205.158 371.034C204.916 370.644 204.799 370.154 204.806 369.563V361.182ZM213.036 372.148C212.479 372.148 211.985 372.055 211.553 371.87C211.125 371.68 210.786 371.396 210.536 371.017C210.29 370.635 210.167 370.156 210.167 369.58C210.167 369.095 210.252 368.686 210.423 368.353C210.593 368.019 210.828 367.748 211.127 367.54C211.426 367.332 211.771 367.174 212.161 367.068C212.551 366.959 212.968 366.885 213.411 366.847C213.907 366.801 214.307 366.754 214.61 366.705C214.913 366.652 215.133 366.578 215.269 366.483C215.409 366.385 215.479 366.246 215.479 366.068V366.04C215.479 365.748 215.379 365.523 215.178 365.364C214.978 365.205 214.707 365.125 214.366 365.125C213.998 365.125 213.703 365.205 213.479 365.364C213.256 365.523 213.114 365.743 213.053 366.023L210.491 365.932C210.567 365.402 210.762 364.928 211.076 364.512C211.394 364.091 211.83 363.762 212.383 363.523C212.94 363.281 213.608 363.159 214.388 363.159C214.945 363.159 215.459 363.226 215.928 363.358C216.398 363.487 216.807 363.676 217.156 363.926C217.504 364.173 217.773 364.476 217.962 364.835C218.156 365.195 218.252 365.606 218.252 366.068V372H215.638V370.784H215.57C215.415 371.08 215.216 371.33 214.974 371.534C214.735 371.739 214.453 371.892 214.127 371.995C213.805 372.097 213.442 372.148 213.036 372.148ZM213.894 370.33C214.193 370.33 214.462 370.269 214.701 370.148C214.943 370.027 215.137 369.86 215.281 369.648C215.424 369.432 215.496 369.182 215.496 368.898V368.068C215.417 368.11 215.32 368.148 215.207 368.182C215.097 368.216 214.976 368.248 214.843 368.279C214.71 368.309 214.574 368.335 214.434 368.358C214.294 368.381 214.159 368.402 214.031 368.421C213.769 368.462 213.546 368.527 213.36 368.614C213.178 368.701 213.038 368.815 212.94 368.955C212.845 369.091 212.798 369.254 212.798 369.443C212.798 369.731 212.9 369.951 213.104 370.103C213.313 370.254 213.576 370.33 213.894 370.33ZM226.201 360.364V372H223.388V360.364H226.201ZM230.745 367.023V372H227.967V363.273H230.609V364.875H230.705C230.898 364.341 231.228 363.923 231.694 363.62C232.16 363.313 232.715 363.159 233.359 363.159C233.972 363.159 234.504 363.298 234.955 363.574C235.41 363.847 235.762 364.229 236.012 364.722C236.266 365.21 236.391 365.782 236.387 366.438V372H233.609V366.983C233.612 366.498 233.489 366.12 233.239 365.847C232.993 365.574 232.65 365.438 232.211 365.438C231.919 365.438 231.662 365.502 231.438 365.631C231.219 365.756 231.048 365.936 230.927 366.171C230.809 366.406 230.749 366.69 230.745 367.023ZM238.107 372V363.273H240.886V372H238.107ZM239.499 362.256C239.109 362.256 238.774 362.127 238.494 361.87C238.213 361.608 238.073 361.294 238.073 360.926C238.073 360.563 238.213 360.252 238.494 359.995C238.774 359.733 239.109 359.603 239.499 359.603C239.893 359.603 240.228 359.733 240.505 359.995C240.785 360.252 240.925 360.563 240.925 360.926C240.925 361.294 240.785 361.608 240.505 361.87C240.228 362.127 239.893 362.256 239.499 362.256ZM246.728 372.165C245.808 372.165 245.018 371.976 244.359 371.597C243.703 371.218 243.2 370.692 242.847 370.017C242.495 369.339 242.319 368.555 242.319 367.665C242.319 366.771 242.495 365.987 242.847 365.313C243.203 364.635 243.709 364.106 244.364 363.728C245.023 363.349 245.809 363.159 246.722 363.159C247.529 363.159 248.232 363.305 248.83 363.597C249.433 363.889 249.902 364.301 250.239 364.835C250.58 365.366 250.76 365.989 250.779 366.705H248.183C248.129 366.258 247.978 365.907 247.728 365.654C247.482 365.4 247.16 365.273 246.762 365.273C246.44 365.273 246.158 365.364 245.915 365.546C245.673 365.724 245.484 365.989 245.347 366.341C245.215 366.69 245.148 367.121 245.148 367.637C245.148 368.152 245.215 368.587 245.347 368.943C245.484 369.296 245.673 369.563 245.915 369.745C246.158 369.923 246.44 370.012 246.762 370.012C247.02 370.012 247.247 369.957 247.444 369.847C247.645 369.737 247.809 369.576 247.938 369.364C248.067 369.148 248.148 368.887 248.183 368.58H250.779C250.753 369.299 250.573 369.928 250.239 370.466C249.91 371.004 249.446 371.423 248.847 371.722C248.253 372.017 247.546 372.165 246.728 372.165ZM252.201 372V363.273H254.979V372H252.201ZM253.593 362.256C253.203 362.256 252.868 362.127 252.587 361.87C252.307 361.608 252.167 361.294 252.167 360.926C252.167 360.563 252.307 360.252 252.587 359.995C252.868 359.733 253.203 359.603 253.593 359.603C253.987 359.603 254.322 359.733 254.599 359.995C254.879 360.252 255.019 360.563 255.019 360.926C255.019 361.294 254.879 361.608 254.599 361.87C254.322 362.127 253.987 362.256 253.593 362.256ZM259.208 372.148C258.651 372.148 258.157 372.055 257.725 371.87C257.297 371.68 256.958 371.396 256.708 371.017C256.462 370.635 256.339 370.156 256.339 369.58C256.339 369.095 256.424 368.686 256.594 368.353C256.765 368.019 257 367.748 257.299 367.54C257.598 367.332 257.943 367.174 258.333 367.068C258.723 366.959 259.14 366.885 259.583 366.847C260.079 366.801 260.479 366.754 260.782 366.705C261.085 366.652 261.305 366.578 261.441 366.483C261.581 366.385 261.651 366.246 261.651 366.068V366.04C261.651 365.748 261.551 365.523 261.35 365.364C261.149 365.205 260.879 365.125 260.538 365.125C260.17 365.125 259.875 365.205 259.651 365.364C259.428 365.523 259.286 365.743 259.225 366.023L256.663 365.932C256.738 365.402 256.933 364.928 257.248 364.512C257.566 364.091 258.002 363.762 258.555 363.523C259.112 363.281 259.78 363.159 260.56 363.159C261.117 363.159 261.63 363.226 262.1 363.358C262.57 363.487 262.979 363.676 263.327 363.926C263.676 364.173 263.945 364.476 264.134 364.835C264.327 365.195 264.424 365.606 264.424 366.068V372H261.81V370.784H261.742C261.587 371.08 261.388 371.33 261.146 371.534C260.907 371.739 260.625 371.892 260.299 371.995C259.977 372.097 259.613 372.148 259.208 372.148ZM260.066 370.33C260.365 370.33 260.634 370.269 260.873 370.148C261.115 370.027 261.308 369.86 261.452 369.648C261.596 369.432 261.668 369.182 261.668 368.898V368.068C261.589 368.11 261.492 368.148 261.379 368.182C261.269 368.216 261.147 368.248 261.015 368.279C260.882 368.309 260.746 368.335 260.606 368.358C260.466 368.381 260.331 368.402 260.202 368.421C259.941 368.462 259.718 368.527 259.532 368.614C259.35 368.701 259.21 368.815 259.112 368.955C259.017 369.091 258.969 369.254 258.969 369.443C258.969 369.731 259.072 369.951 259.276 370.103C259.485 370.254 259.748 370.33 260.066 370.33ZM268.901 360.364V372H266.123V360.364H268.901Z" fill="#3A506B"/>
<path d="M347.134 298.686L345.803 302.776L334.738 299.173L336.068 295.089C336.435 293.961 336.973 293.063 337.681 292.393C338.386 291.719 339.226 291.295 340.198 291.121C341.167 290.947 342.226 291.047 343.375 291.421C344.528 291.796 345.446 292.34 346.13 293.053C346.816 293.762 347.247 294.598 347.423 295.56C347.597 296.52 347.5 297.562 347.134 298.686ZM344.394 299.359L344.821 298.046C345.023 297.427 345.089 296.869 345.02 296.372C344.948 295.871 344.71 295.433 344.306 295.058C343.9 294.679 343.299 294.36 342.503 294.101C341.707 293.842 341.036 293.747 340.492 293.816C339.944 293.885 339.494 294.103 339.143 294.471C338.79 294.834 338.51 295.332 338.304 295.966L337.889 297.241L344.394 299.359ZM349.421 291.663L341.123 288.961L341.983 286.319L350.282 289.021L349.421 291.663ZM340.587 287.322C340.466 287.693 340.24 287.972 339.908 288.159C339.573 288.344 339.23 288.38 338.881 288.267C338.535 288.154 338.283 287.925 338.125 287.578C337.963 287.231 337.943 286.872 338.064 286.501C338.186 286.126 338.414 285.848 338.748 285.666C339.08 285.479 339.418 285.442 339.764 285.554C340.114 285.668 340.369 285.899 340.531 286.246C340.69 286.589 340.709 286.948 340.587 287.322ZM351.731 285.046C351.559 285.575 351.318 286.017 351.007 286.37C350.695 286.718 350.32 286.952 349.882 287.073C349.442 287.189 348.948 287.157 348.401 286.979C347.94 286.829 347.577 286.621 347.313 286.356C347.049 286.091 346.864 285.783 346.759 285.434C346.653 285.085 346.611 284.709 346.63 284.305C346.647 283.9 346.706 283.481 346.807 283.048C346.917 282.562 346.996 282.167 347.043 281.864C347.086 281.559 347.084 281.328 347.036 281.169C346.986 281.005 346.876 280.895 346.707 280.84L346.68 280.832C346.403 280.741 346.157 280.767 345.944 280.909C345.73 281.05 345.571 281.283 345.465 281.607C345.352 281.957 345.336 282.262 345.418 282.524C345.5 282.786 345.665 282.989 345.913 283.133L345.033 285.542C344.552 285.305 344.162 284.973 343.863 284.545C343.562 284.113 343.384 283.596 343.328 282.997C343.27 282.392 343.361 281.719 343.603 280.977C343.775 280.447 343.997 279.98 344.269 279.574C344.537 279.168 344.844 278.837 345.189 278.583C345.531 278.328 345.903 278.166 346.303 278.098C346.705 278.025 347.126 278.061 347.565 278.204L353.206 280.04L352.397 282.526L351.24 282.149L351.219 282.214C351.452 282.453 351.628 282.72 351.748 283.013C351.868 283.304 351.927 283.62 351.923 283.961C351.921 284.299 351.857 284.66 351.731 285.046ZM350.268 283.667C350.361 283.382 350.386 283.108 350.345 282.844C350.305 282.576 350.206 282.34 350.049 282.138C349.888 281.934 349.673 281.788 349.403 281.7L348.614 281.443C348.629 281.532 348.635 281.635 348.632 281.754C348.631 281.869 348.624 281.994 348.612 282.13C348.599 282.265 348.582 282.403 348.561 282.543C348.539 282.684 348.517 282.818 348.495 282.946C348.454 283.208 348.446 283.44 348.471 283.644C348.498 283.843 348.562 284.012 348.665 284.149C348.765 284.281 348.906 284.377 349.086 284.435C349.36 284.524 349.6 284.495 349.808 284.348C350.016 284.196 350.17 283.97 350.268 283.667ZM358.276 275.626C358.019 276.415 357.69 277.055 357.287 277.545C356.884 278.035 356.44 278.379 355.954 278.575C355.468 278.771 354.973 278.823 354.469 278.731L355.143 276.184C355.327 276.192 355.503 276.154 355.67 276.069C355.839 275.98 355.99 275.844 356.126 275.661C356.262 275.474 356.376 275.241 356.468 274.96C356.612 274.517 356.623 274.116 356.501 273.757C356.383 273.397 356.058 273.129 355.525 272.956L354.066 272.481L354.036 272.573C354.258 272.76 354.435 272.993 354.567 273.271C354.7 273.55 354.772 273.866 354.784 274.22C354.797 274.571 354.738 274.95 354.605 275.357C354.408 275.962 354.087 276.471 353.642 276.884C353.194 277.292 352.624 277.551 351.931 277.66C351.236 277.764 350.419 277.663 349.479 277.357C348.51 277.041 347.762 276.627 347.236 276.113C346.707 275.598 346.373 275.041 346.233 274.442C346.095 273.839 346.12 273.248 346.309 272.668C346.451 272.232 346.648 271.884 346.9 271.623C347.149 271.358 347.424 271.163 347.724 271.037C348.024 270.912 348.317 270.838 348.603 270.815L348.628 270.74L347.207 270.277L348.063 267.646L356.394 270.359C357.097 270.587 357.632 270.957 357.999 271.467C358.367 271.977 358.572 272.59 358.614 273.304C358.66 274.02 358.547 274.794 358.276 275.626ZM352.981 273.813C353.085 273.492 353.09 273.191 352.994 272.909C352.899 272.627 352.713 272.373 352.436 272.147C352.159 271.921 351.799 271.736 351.356 271.592C350.905 271.446 350.498 271.381 350.134 271.398C349.768 271.41 349.459 271.502 349.207 271.675C348.957 271.845 348.779 272.09 348.675 272.41C348.568 272.738 348.568 273.045 348.674 273.33C348.781 273.616 348.978 273.872 349.267 274.097C349.554 274.318 349.919 274.5 350.362 274.645C350.805 274.789 351.204 274.853 351.56 274.838C351.915 274.822 352.214 274.73 352.456 274.562C352.699 274.39 352.874 274.14 352.981 273.813ZM353.038 264.481L357.77 266.022L356.91 268.664L348.612 265.962L349.43 263.45L350.953 263.946L350.983 263.854C350.535 263.505 350.239 263.062 350.095 262.525C349.948 261.987 349.974 261.412 350.173 260.799C350.363 260.216 350.659 259.753 351.062 259.41C351.462 259.062 351.935 258.845 352.48 258.76C353.024 258.67 353.606 258.728 354.228 258.935L359.517 260.657L358.657 263.299L353.887 261.746C353.427 261.592 353.028 261.592 352.692 261.745C352.356 261.895 352.12 262.178 351.984 262.596C351.894 262.874 351.875 263.138 351.929 263.391C351.98 263.638 352.098 263.856 352.284 264.044C352.471 264.229 352.722 264.374 353.038 264.481ZM361.468 255.199C361.184 256.07 360.762 256.762 360.201 257.272C359.638 257.778 358.981 258.096 358.23 258.226C357.476 258.351 356.674 258.275 355.824 257.998C354.97 257.72 354.278 257.309 353.745 256.766C353.211 256.217 352.867 255.573 352.713 254.834C352.557 254.09 352.621 253.282 352.905 252.411C353.189 251.539 353.612 250.85 354.175 250.344C354.736 249.834 355.393 249.516 356.147 249.391C356.898 249.261 357.701 249.335 358.554 249.613C359.404 249.89 360.096 250.303 360.631 250.851C361.163 251.395 361.507 252.039 361.663 252.783C361.817 253.522 361.752 254.327 361.468 255.199ZM359.48 254.534C359.583 254.217 359.573 253.917 359.45 253.634C359.327 253.35 359.111 253.095 358.803 252.867C358.496 252.636 358.116 252.446 357.662 252.298C357.201 252.148 356.778 252.076 356.394 252.083C356.01 252.085 355.686 252.165 355.42 252.321C355.154 252.478 354.969 252.714 354.866 253.031C354.759 253.359 354.766 253.668 354.887 253.958C355.008 254.245 355.223 254.504 355.53 254.735C355.838 254.963 356.223 255.152 356.684 255.302C357.138 255.45 357.556 255.523 357.939 255.52C358.324 255.514 358.65 255.431 358.917 255.271C359.185 255.107 359.373 254.861 359.48 254.534ZM351.662 253.016L349.581 251.131L350.343 248.792L352.248 251.217L351.662 253.016ZM359.712 240.48L358.987 242.927C358.805 242.896 358.63 242.914 358.46 242.983C358.287 243.05 358.133 243.161 357.999 243.317C357.863 243.467 357.756 243.66 357.68 243.894C357.58 244.2 357.556 244.481 357.608 244.737C357.662 244.989 357.793 245.148 358.003 245.212C358.164 245.269 358.326 245.249 358.488 245.155C358.652 245.057 358.826 244.845 359.012 244.519L359.835 243.018C360.263 242.241 360.727 241.711 361.226 241.427C361.726 241.14 362.279 241.093 362.885 241.286C363.453 241.475 363.893 241.806 364.205 242.278C364.519 242.747 364.699 243.307 364.745 243.96C364.788 244.611 364.689 245.308 364.447 246.05C364.061 247.235 363.514 248.09 362.805 248.616C362.093 249.137 361.311 249.313 360.458 249.143L361.243 246.512C361.564 246.553 361.844 246.479 362.081 246.289C362.318 246.099 362.497 245.817 362.619 245.442C362.729 245.104 362.756 244.808 362.699 244.554C362.642 244.301 362.51 244.138 362.302 244.066C362.114 244.009 361.937 244.043 361.773 244.169C361.605 244.293 361.432 244.518 361.255 244.843L360.508 246.201C360.086 246.984 359.605 247.512 359.065 247.787C358.522 248.06 357.934 248.092 357.301 247.882C356.746 247.705 356.32 247.403 356.025 246.976C355.726 246.548 355.562 246.025 355.532 245.405C355.503 244.786 355.61 244.102 355.854 243.353C356.22 242.229 356.744 241.42 357.427 240.925C358.107 240.43 358.868 240.281 359.712 240.48ZM359.193 233.465L361.138 234.098L359.434 239.333L357.489 238.7L359.193 233.465ZM355.858 236.956L356.718 234.314L364.395 236.814C364.557 236.867 364.697 236.884 364.814 236.867C364.929 236.844 365.024 236.79 365.1 236.703C365.173 236.615 365.232 236.501 365.278 236.36C365.311 236.26 365.336 236.15 365.354 236.033C365.37 235.911 365.381 235.818 365.385 235.756L367.422 235.977C367.417 236.115 367.404 236.308 367.383 236.556C367.363 236.8 367.309 237.084 367.22 237.405C367.047 238.034 366.802 238.542 366.485 238.929C366.165 239.311 365.782 239.558 365.335 239.671C364.889 239.781 364.386 239.741 363.827 239.551L355.858 236.956ZM367.931 234.819L359.632 232.117L360.493 229.475L368.791 232.177L367.931 234.819ZM359.096 230.478C358.975 230.849 358.749 231.128 358.417 231.315C358.082 231.501 357.74 231.537 357.39 231.423C357.045 231.31 356.793 231.081 356.635 230.735C356.473 230.387 356.452 230.028 356.573 229.657C356.695 229.282 356.923 229.004 357.257 228.822C357.589 228.635 357.928 228.598 358.274 228.711C358.623 228.825 358.878 229.055 359.04 229.403C359.199 229.745 359.218 230.104 359.096 230.478ZM370.756 226.673C370.472 227.548 370.047 228.241 369.483 228.75C368.92 229.256 368.263 229.572 367.513 229.698C366.759 229.823 365.959 229.748 365.112 229.472C364.262 229.195 363.571 228.785 363.039 228.241C362.505 227.693 362.159 227.049 362.002 226.308C361.846 225.564 361.909 224.758 362.192 223.89C362.441 223.123 362.798 222.5 363.26 222.021C363.724 221.539 364.262 221.22 364.874 221.065C365.484 220.905 366.132 220.927 366.819 221.13L366.015 223.599C365.574 223.511 365.193 223.547 364.875 223.706C364.557 223.862 364.337 224.129 364.214 224.507C364.114 224.813 364.113 225.109 364.211 225.396C364.305 225.682 364.499 225.944 364.791 226.183C365.082 226.417 365.472 226.613 365.962 226.773C366.451 226.932 366.886 227.004 367.266 226.988C367.643 226.968 367.955 226.87 368.203 226.696C368.448 226.521 368.62 226.28 368.719 225.974C368.799 225.729 368.817 225.496 368.774 225.275C368.732 225.05 368.63 224.843 368.468 224.655C368.302 224.466 368.079 224.307 367.798 224.18L368.602 221.711C369.278 221.959 369.82 222.325 370.228 222.808C370.638 223.288 370.892 223.859 370.991 224.521C371.088 225.178 371.01 225.895 370.756 226.673ZM373.712 217.595C373.429 218.467 373.006 219.158 372.446 219.669C371.883 220.174 371.225 220.492 370.474 220.622C369.72 220.747 368.918 220.671 368.068 220.394C367.215 220.116 366.522 219.706 365.99 219.162C365.455 218.613 365.111 217.97 364.958 217.23C364.802 216.486 364.865 215.679 365.149 214.807C365.433 213.935 365.856 213.247 366.42 212.741C366.98 212.23 367.637 211.912 368.391 211.787C369.143 211.658 369.945 211.732 370.799 212.01C371.649 212.286 372.341 212.699 372.875 213.247C373.407 213.791 373.751 214.435 373.908 215.179C374.061 215.918 373.996 216.724 373.712 217.595ZM371.724 216.93C371.827 216.613 371.817 216.313 371.694 216.03C371.572 215.747 371.356 215.491 371.048 215.264C370.741 215.032 370.36 214.843 369.906 214.695C369.445 214.545 369.023 214.473 368.638 214.479C368.255 214.482 367.93 214.561 367.664 214.718C367.398 214.874 367.213 215.111 367.11 215.428C367.004 215.755 367.01 216.064 367.131 216.355C367.253 216.641 367.467 216.9 367.774 217.132C368.083 217.36 368.467 217.549 368.928 217.699C369.382 217.846 369.801 217.919 370.184 217.916C370.568 217.91 370.894 217.827 371.161 217.667C371.43 217.503 371.617 217.258 371.724 216.93ZM380.064 208.128C379.961 208.445 379.838 208.735 379.696 209C379.558 209.266 379.416 209.486 379.271 209.662L377.543 208.454C377.714 208.223 377.841 208.006 377.923 207.801C378.007 207.593 378.032 207.4 377.998 207.222C377.969 207.042 377.866 206.876 377.688 206.727L377.473 206.543L367.911 206.692L368.812 203.926L375.231 204.325L375.259 204.239L369.843 200.76L370.749 197.978L378.823 204.067C379.227 204.366 379.557 204.71 379.813 205.1C380.073 205.488 380.231 205.932 380.287 206.432C380.345 206.929 380.27 207.494 380.064 208.128ZM364.999 305.19L353.934 301.587L355.422 297.016C355.692 296.188 356.087 295.526 356.607 295.03C357.125 294.529 357.725 294.208 358.408 294.068C359.087 293.927 359.807 293.98 360.567 294.228C361.331 294.476 361.944 294.861 362.408 295.383C362.869 295.899 363.156 296.517 363.269 297.235C363.381 297.953 363.3 298.735 363.024 299.581L362.106 302.401L359.999 301.715L360.756 299.392C360.887 298.989 360.926 298.629 360.874 298.313C360.823 297.994 360.694 297.723 360.487 297.5C360.277 297.276 360.003 297.109 359.664 296.999C359.322 296.888 359.004 296.862 358.71 296.921C358.412 296.98 358.15 297.124 357.924 297.353C357.698 297.582 357.52 297.896 357.39 298.296L356.961 299.614L365.869 302.515L364.999 305.19ZM368.23 295.265L359.932 292.563L360.767 289.997L362.28 290.489L362.308 290.403C361.81 290.073 361.484 289.694 361.328 289.265C361.17 288.835 361.164 288.393 361.312 287.939C361.352 287.817 361.402 287.693 361.462 287.57C361.519 287.445 361.581 287.332 361.65 287.231L363.946 287.978C363.862 288.09 363.774 288.245 363.682 288.442C363.591 288.635 363.52 288.811 363.468 288.97C363.366 289.283 363.344 289.589 363.403 289.887C363.459 290.18 363.587 290.439 363.789 290.664C363.988 290.884 364.253 291.048 364.585 291.156L369.091 292.623L368.23 295.265ZM371.595 285.464C371.312 286.332 370.897 287.026 370.35 287.545C369.8 288.059 369.151 288.381 368.403 288.512C367.653 288.639 366.837 288.558 365.954 288.271C365.097 287.991 364.403 287.578 363.872 287.031C363.338 286.482 362.993 285.842 362.837 285.11C362.677 284.377 362.733 283.593 363.005 282.757C363.198 282.166 363.465 281.656 363.809 281.226C364.152 280.796 364.562 280.461 365.038 280.222C365.514 279.983 366.049 279.85 366.643 279.824C367.234 279.798 367.869 279.895 368.55 280.117L369.209 280.331L366.86 287.544L365.326 287.044L366.874 282.29C366.592 282.202 366.32 282.187 366.058 282.245C365.796 282.303 365.567 282.426 365.371 282.613C365.172 282.795 365.025 283.032 364.93 283.324C364.834 283.619 364.814 283.906 364.871 284.183C364.925 284.46 365.043 284.703 365.225 284.914C365.404 285.123 365.634 285.278 365.916 285.378L367.478 285.886C367.816 285.997 368.135 286.027 368.434 285.977C368.73 285.926 368.988 285.8 369.208 285.601C369.428 285.402 369.593 285.133 369.704 284.795C369.78 284.561 369.817 284.338 369.814 284.126C369.811 283.914 369.769 283.719 369.688 283.541C369.606 283.363 369.485 283.21 369.323 283.081L370.183 280.678C370.694 280.956 371.096 281.332 371.388 281.806C371.677 282.274 371.844 282.821 371.888 283.444C371.928 284.067 371.831 284.74 371.595 285.464ZM369.754 271.004L369.029 273.45C368.848 273.419 368.673 273.438 368.503 273.506C368.33 273.573 368.176 273.685 368.042 273.84C367.905 273.991 367.799 274.183 367.723 274.417C367.623 274.723 367.599 275.004 367.651 275.26C367.705 275.513 367.836 275.671 368.046 275.736C368.207 275.792 368.369 275.773 368.531 275.678C368.694 275.58 368.869 275.368 369.055 275.042L369.878 273.542C370.306 272.765 370.77 272.234 371.269 271.951C371.768 271.663 372.322 271.616 372.928 271.81C373.496 271.999 373.936 272.329 374.248 272.801C374.562 273.27 374.742 273.83 374.788 274.483C374.831 275.134 374.732 275.831 374.49 276.573C374.104 277.758 373.557 278.613 372.848 279.139C372.136 279.661 371.354 279.836 370.501 279.666L371.286 277.035C371.607 277.076 371.886 277.002 372.124 276.812C372.361 276.623 372.54 276.34 372.662 275.966C372.772 275.627 372.799 275.331 372.742 275.078C372.685 274.824 372.553 274.661 372.345 274.59C372.157 274.532 371.98 274.567 371.816 274.692C371.648 274.817 371.475 275.041 371.298 275.366L370.551 276.724C370.129 277.507 369.648 278.036 369.108 278.31C368.565 278.583 367.977 278.615 367.344 278.405C366.789 278.228 366.363 277.926 366.068 277.499C365.769 277.071 365.605 276.548 365.575 275.929C365.546 275.31 365.653 274.626 365.897 273.876C366.263 272.753 366.787 271.944 367.47 271.449C368.15 270.953 368.911 270.805 369.754 271.004ZM374.171 264.854L369.454 263.318L370.313 260.682L378.611 263.384L377.792 265.902L376.246 265.399L376.218 265.485C376.666 265.834 376.968 266.279 377.122 266.819C377.275 267.355 377.249 267.934 377.046 268.557C376.862 269.123 376.571 269.577 376.172 269.922C375.773 270.266 375.302 270.481 374.76 270.568C374.215 270.653 373.628 270.595 373 270.395L367.711 268.672L368.571 266.031L373.342 267.584C373.793 267.727 374.187 267.724 374.522 267.574C374.858 267.424 375.091 267.148 375.223 266.744C375.308 266.481 375.327 266.227 375.28 265.98C375.23 265.729 375.114 265.506 374.93 265.311C374.745 265.111 374.491 264.959 374.171 264.854ZM382.271 262.716L370.86 259L371.712 256.386L373.133 256.848L373.159 256.767C372.942 256.577 372.749 256.345 372.579 256.07C372.411 255.793 372.303 255.475 372.256 255.117C372.207 254.754 372.254 254.355 372.395 253.919C372.583 253.343 372.91 252.854 373.375 252.452C373.842 252.046 374.441 251.791 375.172 251.686C375.903 251.582 376.757 251.688 377.733 252.006C378.673 252.312 379.411 252.718 379.948 253.223C380.486 253.725 380.831 254.28 380.984 254.887C381.138 255.491 381.115 256.099 380.916 256.711C380.779 257.129 380.593 257.469 380.357 257.73C380.12 257.992 379.856 258.191 379.565 258.327C379.275 258.46 378.984 258.54 378.691 258.569L378.674 258.623L383.131 260.074L382.271 262.716ZM375.852 257.764C376.299 257.909 376.707 257.976 377.077 257.965C377.449 257.951 377.763 257.86 378.021 257.693C378.276 257.521 378.455 257.275 378.56 256.954C378.665 256.63 378.665 256.325 378.559 256.04C378.449 255.753 378.247 255.498 377.953 255.275C377.661 255.048 377.291 254.862 376.844 254.717C376.398 254.571 375.991 254.504 375.625 254.517C375.26 254.525 374.95 254.614 374.696 254.782C374.443 254.946 374.263 255.193 374.157 255.52C374.051 255.845 374.05 256.149 374.152 256.433C374.255 256.718 374.45 256.974 374.738 257.204C375.027 257.429 375.398 257.616 375.852 257.764ZM380.489 245.451L375.773 243.915L376.631 241.278L384.929 243.981L384.11 246.498L382.565 245.995L382.536 246.082C382.984 246.431 383.286 246.875 383.44 247.416C383.593 247.951 383.567 248.531 383.364 249.154C383.18 249.719 382.889 250.174 382.49 250.518C382.091 250.862 381.621 251.078 381.079 251.164C380.533 251.249 379.946 251.192 379.318 250.991L374.029 249.269L374.889 246.627L379.66 248.18C380.111 248.323 380.505 248.32 380.84 248.17C381.176 248.021 381.409 247.744 381.541 247.341C381.626 247.078 381.646 246.823 381.598 246.577C381.549 246.326 381.432 246.102 381.249 245.907C381.063 245.707 380.81 245.555 380.489 245.451ZM386.897 238.471C386.614 239.339 386.199 240.032 385.652 240.551C385.102 241.065 384.453 241.388 383.705 241.519C382.955 241.645 382.139 241.565 381.256 241.277C380.399 240.998 379.705 240.585 379.174 240.038C378.64 239.489 378.295 238.849 378.139 238.117C377.979 237.384 378.035 236.599 378.307 235.764C378.5 235.173 378.767 234.663 379.111 234.233C379.454 233.803 379.863 233.468 380.34 233.229C380.816 232.989 381.351 232.857 381.945 232.831C382.535 232.804 383.171 232.902 383.852 233.123L384.511 233.338L382.162 240.55L380.628 240.051L382.176 235.297C381.894 235.209 381.622 235.194 381.36 235.252C381.098 235.31 380.869 235.433 380.673 235.62C380.474 235.802 380.327 236.039 380.232 236.331C380.136 236.626 380.116 236.912 380.173 237.19C380.227 237.466 380.345 237.71 380.527 237.921C380.706 238.13 380.936 238.285 381.218 238.385L382.78 238.893C383.118 239.003 383.437 239.033 383.736 238.983C384.032 238.932 384.29 238.807 384.51 238.608C384.73 238.409 384.895 238.14 385.005 237.801C385.082 237.567 385.118 237.344 385.116 237.132C385.113 236.92 385.071 236.725 384.99 236.547C384.908 236.369 384.787 236.216 384.625 236.088L385.485 233.685C385.996 233.963 386.398 234.339 386.69 234.812C386.979 235.281 387.146 235.827 387.19 236.451C387.23 237.074 387.132 237.747 386.897 238.471ZM385.056 224.01L384.331 226.457C384.15 226.426 383.975 226.445 383.805 226.513C383.632 226.58 383.478 226.691 383.344 226.847C383.207 226.997 383.101 227.19 383.025 227.424C382.925 227.73 382.901 228.011 382.953 228.267C383.006 228.519 383.138 228.678 383.348 228.742C383.509 228.799 383.671 228.78 383.833 228.685C383.996 228.587 384.171 228.375 384.357 228.049L385.18 226.548C385.608 225.771 386.072 225.241 386.57 224.957C387.07 224.67 387.623 224.623 388.23 224.816C388.798 225.005 389.238 225.336 389.55 225.808C389.864 226.277 390.044 226.837 390.09 227.49C390.133 228.141 390.034 228.838 389.792 229.58C389.406 230.765 388.859 231.62 388.15 232.146C387.438 232.667 386.656 232.843 385.803 232.673L386.588 230.042C386.909 230.083 387.188 230.009 387.425 229.819C387.662 229.629 387.842 229.347 387.964 228.972C388.074 228.634 388.101 228.338 388.044 228.084C387.987 227.831 387.855 227.668 387.647 227.597C387.459 227.539 387.282 227.573 387.118 227.699C386.95 227.824 386.777 228.048 386.6 228.373L385.853 229.731C385.43 230.514 384.95 231.042 384.41 231.317C383.867 231.59 383.279 231.622 382.646 231.412C382.09 231.235 381.665 230.933 381.37 230.506C381.071 230.078 380.907 229.555 380.877 228.936C380.848 228.316 380.955 227.632 381.199 226.883C381.565 225.759 382.089 224.95 382.772 224.455C383.451 223.96 384.213 223.811 385.056 224.01ZM384.538 216.995L386.483 217.628L384.778 222.864L382.833 222.23L384.538 216.995ZM381.202 220.486L382.063 217.844L389.74 220.344C389.902 220.397 390.042 220.414 390.159 220.397C390.274 220.374 390.369 220.32 390.445 220.233C390.518 220.145 390.577 220.031 390.622 219.89C390.655 219.79 390.681 219.68 390.699 219.563C390.715 219.441 390.725 219.348 390.73 219.286L392.767 219.507C392.762 219.645 392.749 219.838 392.728 220.086C392.708 220.331 392.654 220.614 392.565 220.935C392.392 221.564 392.147 222.072 391.83 222.459C391.51 222.841 391.127 223.088 390.68 223.202C390.234 223.311 389.731 223.271 389.171 223.081L381.202 220.486ZM394.664 214.616C394.381 215.487 393.958 216.178 393.398 216.689C392.835 217.195 392.178 217.513 391.426 217.642C390.672 217.768 389.87 217.692 389.02 217.415C388.167 217.137 387.474 216.726 386.942 216.182C386.408 215.634 386.063 214.99 385.91 214.251C385.754 213.507 385.818 212.699 386.101 211.827C386.385 210.956 386.809 210.267 387.372 209.761C387.932 209.251 388.589 208.933 389.343 208.808C390.095 208.678 390.897 208.752 391.751 209.03C392.601 209.307 393.293 209.719 393.827 210.268C394.359 210.812 394.704 211.455 394.86 212.199C395.013 212.939 394.948 213.744 394.664 214.616ZM392.676 213.95C392.779 213.633 392.77 213.333 392.647 213.05C392.524 212.767 392.308 212.512 392 212.284C391.693 212.053 391.312 211.863 390.858 211.715C390.397 211.565 389.975 211.493 389.59 211.499C389.207 211.502 388.882 211.582 388.616 211.738C388.35 211.894 388.166 212.131 388.062 212.448C387.956 212.776 387.963 213.085 388.083 213.375C388.205 213.662 388.419 213.921 388.726 214.152C389.035 214.38 389.419 214.569 389.88 214.719C390.334 214.867 390.753 214.939 391.136 214.937C391.52 214.93 391.846 214.847 392.114 214.687C392.382 214.524 392.569 214.278 392.676 213.95Z" fill="#3A506B"/>
<path d="M346.324 98.5014L339.706 108.073L335.752 105.339C335.036 104.843 334.507 104.287 334.165 103.668C333.818 103.051 333.669 102.404 333.717 101.728C333.764 101.056 334.013 100.392 334.465 99.7378C334.924 99.0741 335.459 98.6104 336.07 98.3465C336.678 98.0857 337.333 98.018 338.034 98.1434C338.732 98.2719 339.446 98.5881 340.175 99.0922L342.675 100.821L341.415 102.644L339.345 101.212C338.996 100.971 338.673 100.815 338.377 100.743C338.076 100.673 337.8 100.69 337.549 100.792C337.296 100.898 337.067 101.099 336.863 101.395C336.658 101.691 336.55 101.978 336.538 102.255C336.523 102.536 336.601 102.806 336.771 103.066C336.939 103.33 337.196 103.581 337.542 103.82L338.682 104.608L344.011 96.9019L346.324 98.5014ZM337.911 99.15L338.552 93.1276L341.076 94.8726L340.388 100.863L337.911 99.15ZM334.49 90.1186C335.241 90.6378 335.787 91.2338 336.127 91.9068C336.462 92.5808 336.586 93.2947 336.497 94.0487C336.404 94.8036 336.093 95.5628 335.565 96.3261C335.052 97.0676 334.458 97.6144 333.782 97.9665C333.103 98.3217 332.391 98.4693 331.645 98.4094C330.897 98.3526 330.161 98.0743 329.438 97.5745C328.927 97.2212 328.515 96.8186 328.201 96.3667C327.887 95.9149 327.684 95.4265 327.591 94.9017C327.498 94.3768 327.524 93.8262 327.669 93.2497C327.812 92.6763 328.087 92.0952 328.495 91.5064L328.889 90.9362L335.128 95.2501L334.21 96.5774L330.098 93.7337C329.933 93.9789 329.841 94.2353 329.821 94.5029C329.802 94.7705 329.854 95.0251 329.977 95.2668C330.095 95.5094 330.28 95.718 330.532 95.8925C330.788 96.0691 331.057 96.1698 331.339 96.1945C331.619 96.2224 331.886 96.1791 332.14 96.0647C332.392 95.9534 332.606 95.7768 332.783 95.535L333.716 94.1844C333.919 93.8915 334.039 93.5946 334.077 93.2937C334.112 92.9959 334.066 92.713 333.938 92.445C333.81 92.177 333.6 91.9417 333.307 91.7392C333.105 91.5992 332.901 91.5002 332.698 91.4421C332.494 91.384 332.295 91.3685 332.101 91.3957C331.907 91.4229 331.726 91.4955 331.557 91.6134L329.5 90.1018C329.913 89.6916 330.388 89.4144 330.925 89.2701C331.457 89.1268 332.028 89.1233 332.638 89.2598C333.246 89.3993 333.864 89.6856 334.49 90.1186ZM331.683 84.3995L324.859 94.2698L322.597 92.7059L323.447 91.4767L323.376 91.4283C323.132 91.5817 322.854 91.7005 322.543 91.7845C322.228 91.8664 321.893 91.8786 321.537 91.821C321.175 91.7645 320.806 91.6059 320.429 91.3452C319.931 91.0005 319.555 90.5476 319.303 89.9864C319.048 89.4231 318.975 88.7762 319.084 88.0457C319.193 87.3152 319.539 86.5278 320.123 85.6835C320.685 84.8703 321.285 84.2789 321.923 83.9094C322.558 83.5377 323.188 83.3655 323.814 83.3929C324.436 83.4182 325.012 83.614 325.542 83.9802C325.904 84.2301 326.176 84.5058 326.359 84.8073C326.542 85.1088 326.657 85.4186 326.704 85.7367C326.748 86.0527 326.742 86.3546 326.685 86.6426L326.732 86.675L329.398 82.8193L331.683 84.3995ZM325.102 89.1328C325.369 88.7465 325.55 88.3744 325.646 88.0167C325.738 87.6568 325.741 87.3296 325.654 87.0349C325.563 86.7413 325.378 86.4986 325.101 86.3069C324.82 86.113 324.528 86.0261 324.224 86.0461C323.918 86.0693 323.616 86.1898 323.318 86.4075C323.017 86.623 322.733 86.924 322.466 87.3103C322.199 87.6966 322.019 88.0671 321.925 88.4217C321.829 88.7742 321.825 89.0962 321.914 89.3877C321.999 89.677 322.184 89.9197 322.467 90.1157C322.748 90.3096 323.039 90.3981 323.341 90.3811C323.642 90.3642 323.944 90.2506 324.246 90.0403C324.545 89.8279 324.83 89.5254 325.102 89.1328ZM319.464 79.7502C319.922 80.0669 320.276 80.4243 320.526 80.8226C320.77 81.2218 320.887 81.6483 320.878 82.102C320.863 82.5567 320.691 83.0209 320.364 83.4944C320.088 83.8932 319.785 84.1813 319.456 84.3585C319.126 84.5357 318.779 84.6249 318.414 84.6261C318.049 84.6273 317.676 84.5605 317.295 84.4259C316.912 84.2944 316.527 84.1181 316.141 83.8973C315.707 83.6524 315.351 83.4641 315.074 83.3323C314.795 83.2035 314.572 83.1394 314.406 83.1397C314.235 83.141 314.098 83.2149 313.997 83.3613L313.981 83.3847C313.815 83.6246 313.77 83.867 313.844 84.1121C313.919 84.3571 314.096 84.5766 314.377 84.7704C314.679 84.9794 314.967 85.082 315.242 85.0782C315.516 85.0745 315.758 84.9746 315.967 84.7785L318.023 86.3106C317.659 86.7037 317.229 86.9822 316.734 87.1461C316.233 87.311 315.687 87.3343 315.097 87.2161C314.501 87.0988 313.882 86.8183 313.24 86.3745C312.782 86.0579 312.398 85.7114 312.087 85.3353C311.774 84.9622 311.545 84.5738 311.4 84.1699C311.254 83.7692 311.205 83.367 311.254 82.9633C311.299 82.5575 311.454 82.1645 311.717 81.7844L315.09 76.9053L317.24 78.3917L316.548 79.3918L316.604 79.4306C316.9 79.2759 317.206 79.1834 317.522 79.153C317.834 79.1205 318.154 79.1548 318.48 79.2559C318.803 79.3549 319.131 79.5197 319.464 79.7502ZM317.725 80.7578C317.479 80.5876 317.223 80.4845 316.958 80.4484C316.689 80.4103 316.436 80.4375 316.197 80.5301C315.955 80.6258 315.754 80.7905 315.592 81.0242L315.121 81.7065C315.21 81.7175 315.311 81.7413 315.424 81.7779C315.533 81.8123 315.651 81.8548 315.778 81.9052C315.904 81.9557 316.031 82.0114 316.159 82.0725C316.288 82.1335 316.41 82.1928 316.527 82.2505C316.765 82.3649 316.986 82.439 317.188 82.4729C317.387 82.5046 317.567 82.4909 317.728 82.4316C317.883 82.3733 318.015 82.2663 318.123 82.1105C318.286 81.8737 318.327 81.6348 318.245 81.3939C318.16 81.1507 317.986 80.9387 317.725 80.7578ZM313.693 75.9391L308.729 83.1175L306.509 81.5826L307.414 80.2741L307.339 80.2224C306.881 80.6055 306.424 80.81 305.969 80.8359C305.511 80.8649 305.086 80.7437 304.694 80.4722C304.588 80.399 304.484 80.3158 304.383 80.2227C304.279 80.1327 304.189 80.0402 304.112 79.9454L305.485 77.9592C305.568 78.072 305.691 78.2007 305.854 78.3453C306.013 78.4877 306.161 78.6063 306.298 78.7011C306.569 78.8885 306.856 78.9969 307.158 79.0262C307.455 79.0564 307.74 79.0072 308.013 78.8784C308.281 78.7505 308.514 78.5433 308.712 78.2566L311.407 74.359L313.693 75.9391ZM306.484 70.775C306.942 71.0917 307.296 71.4492 307.545 71.8474C307.79 72.2466 307.907 72.6731 307.897 73.1268C307.882 73.5816 307.711 74.0457 307.383 74.5193C307.108 74.9181 306.805 75.2061 306.475 75.3833C306.145 75.5606 305.798 75.6498 305.433 75.6509C305.069 75.6521 304.696 75.5854 304.315 75.4507C303.931 75.3192 303.547 75.143 303.161 74.9221C302.727 74.6773 302.371 74.4889 302.094 74.3571C301.814 74.2284 301.592 74.1642 301.425 74.1645C301.254 74.1658 301.118 74.2397 301.017 74.3861L301.001 74.4095C300.835 74.6494 300.789 74.8919 300.864 75.1369C300.938 75.3819 301.116 75.6014 301.396 75.7953C301.698 76.0042 301.987 76.1068 302.261 76.1031C302.535 76.0993 302.777 75.9994 302.986 75.8033L305.042 77.3354C304.679 77.7285 304.249 78.0071 303.753 78.171C303.252 78.3359 302.707 78.3592 302.116 78.2409C301.52 78.1237 300.901 77.8431 300.26 77.3994C299.802 77.0827 299.417 76.7363 299.106 76.3601C298.793 75.987 298.564 75.5986 298.42 75.1948C298.273 74.7941 298.224 74.3919 298.273 73.9882C298.319 73.5823 298.473 73.1893 298.736 72.8092L302.11 67.9301L304.259 69.4166L303.568 70.4167L303.624 70.4555C303.92 70.3008 304.225 70.2082 304.541 70.1779C304.854 70.1453 305.173 70.1796 305.499 70.2808C305.822 70.3798 306.15 70.5445 306.484 70.775ZM304.744 71.7826C304.498 71.6124 304.242 71.5093 303.977 71.4733C303.709 71.4351 303.455 71.4623 303.216 71.5549C302.975 71.6507 302.773 71.8154 302.612 72.0491L302.14 72.7314C302.229 72.7423 302.33 72.7661 302.443 72.8027C302.553 72.8371 302.671 72.8796 302.797 72.9301C302.923 72.9805 303.051 73.0363 303.179 73.0973C303.307 73.1583 303.43 73.2177 303.546 73.2753C303.785 73.3897 304.005 73.4638 304.208 73.4977C304.407 73.5295 304.587 73.5157 304.747 73.4564C304.903 73.3981 305.034 73.2911 305.142 73.1353C305.306 72.8985 305.347 72.6596 305.264 72.4187C305.179 72.1756 305.006 71.9635 304.744 71.7826ZM297.455 64.5115C298.212 65.035 298.754 65.6399 299.081 66.3263C299.404 67.0106 299.519 67.7302 299.426 68.4851C299.33 69.2432 299.029 69.9883 298.522 70.7204C298.014 71.4557 297.423 72.0005 296.75 72.3547C296.072 72.7099 295.355 72.857 294.601 72.7959C293.843 72.7326 293.089 72.4413 292.338 71.9222C291.674 71.4633 291.179 70.9438 290.853 70.3635C290.523 69.781 290.372 69.1743 290.398 68.5433C290.42 67.9132 290.626 67.2984 291.018 66.6987L293.153 68.1755C292.943 68.5733 292.868 68.9476 292.929 69.2986C292.988 69.6473 293.18 69.9348 293.507 70.161C293.772 70.3441 294.056 70.4299 294.359 70.4182C294.659 70.4096 294.966 70.2992 295.279 70.087C295.586 69.8758 295.886 69.5583 296.179 69.1346C296.472 68.7109 296.665 68.3149 296.759 67.9466C296.847 67.5793 296.843 67.2519 296.747 66.9645C296.649 66.6802 296.467 66.4465 296.202 66.2634C295.99 66.1169 295.772 66.0328 295.548 66.0111C295.32 65.9873 295.093 66.026 294.867 66.1272C294.638 66.2316 294.422 66.4002 294.22 66.6332L292.084 65.1565C292.515 64.5796 293.021 64.1647 293.601 63.9119C294.178 63.6569 294.797 63.5765 295.46 63.6707C296.117 63.7659 296.782 64.0462 297.455 64.5115ZM292.86 61.5344L287.896 68.7128L285.611 67.1327L290.574 59.9543L292.86 61.5344ZM286.173 68.7577C286.494 68.9796 286.696 69.2762 286.78 69.6475C286.862 70.0218 286.799 70.3602 286.59 70.6624C286.383 70.9615 286.091 71.1372 285.714 71.1897C285.335 71.2453 284.985 71.1621 284.664 70.9402C284.34 70.7162 284.138 70.418 284.06 70.0458C283.975 69.6745 284.037 69.3393 284.244 69.0402C284.453 68.738 284.747 68.5591 285.126 68.5035C285.5 68.4489 285.849 68.5337 286.173 68.7577ZM285.863 56.4961C286.617 57.0174 287.158 57.6197 287.487 58.303C287.81 58.9872 287.927 59.7079 287.836 60.465C287.74 61.223 287.438 61.9697 286.93 62.705C286.419 63.4434 285.827 63.9897 285.154 64.344C284.476 64.6992 283.76 64.8446 283.008 64.7804C282.251 64.7171 281.495 64.4248 280.741 63.9035C279.987 63.3822 279.448 62.7794 279.124 62.0951C278.796 61.4118 278.679 60.6912 278.775 59.9331C278.866 59.176 279.166 58.4283 279.677 57.6899C280.185 56.9546 280.779 56.4094 281.457 56.0542C282.13 55.6999 282.846 55.5544 283.603 55.6177C284.355 55.682 285.109 55.9747 285.863 56.4961ZM284.656 58.2109C284.382 58.0213 284.092 57.9449 283.785 57.9818C283.479 58.0186 283.172 58.1521 282.866 58.3823C282.556 58.6103 282.266 58.9206 281.994 59.3131C281.719 59.7119 281.529 60.0964 281.425 60.4666C281.318 60.8347 281.301 61.1685 281.375 61.4682C281.448 61.7678 281.622 62.0124 281.897 62.202C282.18 62.398 282.478 62.4798 282.791 62.4473C283.1 62.4126 283.41 62.2813 283.719 62.0532C284.026 61.8231 284.317 61.5086 284.593 61.1098C284.864 60.7172 285.054 60.3369 285.161 59.9689C285.265 59.5987 285.278 59.2627 285.201 58.9609C285.121 58.6569 284.94 58.4069 284.656 58.2109ZM280.965 65.2675L278.564 66.7225L276.54 65.3233L279.409 64.1914L280.965 65.2675ZM275.856 55.8284L278.686 51.7344L280.972 53.3146L276.008 60.493L273.835 58.9904L274.746 57.6725L274.667 57.6176C274.204 57.947 273.695 58.1039 273.139 58.0881C272.582 58.0755 272.038 57.8861 271.508 57.5199C271.004 57.1709 270.645 56.7545 270.431 56.2707C270.212 55.7879 270.14 55.2729 270.215 54.7256C270.284 54.1794 270.506 53.6378 270.882 53.101L274.045 48.5257L276.331 50.1058L273.477 54.2325C273.199 54.6291 273.084 55.0107 273.135 55.3772C273.182 55.7416 273.387 56.0487 273.748 56.2986C273.988 56.4645 274.237 56.558 274.494 56.5792C274.745 56.6013 274.988 56.5502 275.221 56.426C275.451 56.2996 275.663 56.1004 275.856 55.8284ZM266.546 43.14C267.3 43.6613 267.841 44.2636 268.17 44.9469C268.494 45.6311 268.61 46.3518 268.52 47.1089C268.424 47.8669 268.122 48.6136 267.613 49.3489C267.103 50.0873 266.511 50.6336 265.838 50.9879C265.159 51.3431 264.444 51.4885 263.692 51.4243C262.934 51.361 262.178 51.0687 261.424 50.5474C260.67 50.0261 260.131 49.4233 259.808 48.739C259.479 48.0557 259.363 47.3351 259.458 46.577C259.549 45.8199 259.85 45.0722 260.36 44.3338C260.869 43.5985 261.462 43.0532 262.14 42.698C262.814 42.3438 263.529 42.1983 264.287 42.2616C265.039 42.3258 265.792 42.6186 266.546 43.14ZM265.34 44.8548C265.065 44.6652 264.775 44.5888 264.469 44.6257C264.162 44.6625 263.856 44.796 263.549 45.0262C263.24 45.2542 262.949 45.5645 262.678 45.957C262.402 46.3558 262.212 46.7403 262.108 47.1105C262.001 47.4786 261.984 47.8124 262.058 48.1121C262.132 48.4117 262.306 48.6563 262.58 48.8459C262.863 49.0419 263.162 49.1237 263.474 49.0912C263.784 49.0565 264.093 48.9251 264.403 48.6971C264.709 48.467 265.001 48.1525 265.276 47.7537C265.548 47.3611 265.737 46.9808 265.844 46.6128C265.948 46.2426 265.962 45.9066 265.885 45.6048C265.805 45.3008 265.623 45.0508 265.34 44.8548ZM357.593 97.341L354.729 95.3601L356.396 87.7539L356.284 87.6763L349.756 91.9219L346.891 89.9411L353.509 80.3699L355.762 81.9274L351.697 87.8066L351.776 87.8615L358.098 83.6329L359.538 84.6282L357.791 92.0692L357.871 92.1241L361.959 86.2122L364.211 87.7697L357.593 97.341ZM350.126 77.8515C350.584 78.1681 350.938 78.5256 351.188 78.9239C351.432 79.3231 351.55 79.7495 351.54 80.2033C351.525 80.658 351.353 81.1221 351.026 81.5957C350.75 81.9945 350.447 82.2825 350.118 82.4598C349.788 82.637 349.441 82.7262 349.076 82.7274C348.712 82.7286 348.339 82.6618 347.957 82.5272C347.574 82.3956 347.189 82.2194 346.803 81.9985C346.369 81.7537 346.014 81.5654 345.736 81.4335C345.457 81.3048 345.234 81.2406 345.068 81.241C344.897 81.2423 344.761 81.3161 344.659 81.4626L344.643 81.4859C344.477 81.7258 344.432 81.9683 344.506 82.2133C344.581 82.4584 344.759 82.6778 345.039 82.8717C345.341 83.0807 345.629 83.1833 345.904 83.1795C346.178 83.1758 346.42 83.0759 346.629 82.8798L348.685 84.4119C348.321 84.805 347.891 85.0835 347.396 85.2474C346.895 85.4123 346.349 85.4356 345.759 85.3174C345.163 85.2001 344.544 84.9196 343.902 84.4758C343.444 84.1591 343.06 83.8127 342.749 83.4365C342.436 83.0635 342.207 82.675 342.062 82.2712C341.916 81.8705 341.867 81.4683 341.916 81.0646C341.962 80.6587 342.116 80.2658 342.379 79.8857L345.752 75.0066L347.902 76.493L347.211 77.4931L347.267 77.5319C347.562 77.3772 347.868 77.2847 348.184 77.2543C348.496 77.2218 348.816 77.2561 349.142 77.3572C349.465 77.4562 349.793 77.621 350.126 77.8515ZM348.387 78.859C348.141 78.6888 347.885 78.5857 347.62 78.5497C347.351 78.5116 347.098 78.5388 346.859 78.6314C346.617 78.7271 346.416 78.8918 346.255 79.1255L345.783 79.8078C345.872 79.8188 345.973 79.8426 346.086 79.8792C346.195 79.9136 346.313 79.956 346.44 80.0065C346.566 80.057 346.693 80.1127 346.821 80.1737C346.95 80.2348 347.072 80.2941 347.189 80.3518C347.428 80.4661 347.648 80.5403 347.85 80.5742C348.049 80.6059 348.229 80.5922 348.39 80.5329C348.545 80.4746 348.677 80.3675 348.785 80.2118C348.948 79.975 348.989 79.7361 348.907 79.4951C348.822 79.252 348.648 79.04 348.387 78.859ZM339.239 76.5542L342.07 72.4602L344.355 74.0404L339.391 81.2188L337.218 79.7162L338.13 78.3983L338.05 78.3434C337.587 78.6728 337.078 78.8297 336.523 78.814C335.965 78.8013 335.421 78.6119 334.892 78.2457C334.387 77.8967 334.028 77.4803 333.814 76.9965C333.596 76.5137 333.523 75.9987 333.598 75.4514C333.667 74.9052 333.889 74.3636 334.265 73.8268L337.429 69.2515L339.714 70.8316L336.861 74.9583C336.582 75.3549 336.468 75.7365 336.518 76.103C336.566 76.4674 336.77 76.7745 337.132 77.0244C337.371 77.1903 337.62 77.2838 337.877 77.305C338.129 77.3271 338.371 77.276 338.605 77.1518C338.835 77.0254 339.046 76.8262 339.239 76.5542ZM326.999 72.65L328.162 70.9676L332.691 74.0988L331.527 75.7812L326.999 72.65ZM329.389 76.8451L327.104 75.2649L331.696 68.6239C331.793 68.4837 331.85 68.3549 331.866 68.2375C331.878 68.1211 331.853 68.014 331.791 67.9163C331.728 67.8217 331.635 67.7324 331.514 67.6484C331.427 67.5881 331.329 67.5323 331.222 67.4811C331.109 67.4309 331.024 67.3948 330.965 67.3728L331.76 65.4839C331.891 65.5281 332.072 65.5958 332.304 65.687C332.532 65.776 332.788 65.909 333.071 66.0861C333.624 66.4317 334.04 66.8118 334.32 67.2263C334.595 67.6418 334.722 68.08 334.703 68.5409C334.68 68.9997 334.498 69.47 334.156 69.9517L329.389 76.8451ZM327.611 62.263C328.362 62.7822 328.908 63.3782 329.248 64.0512C329.584 64.7252 329.707 65.4391 329.619 66.1931C329.525 66.948 329.214 67.7072 328.687 68.4705C328.174 69.212 327.579 69.7588 326.903 70.1109C326.224 70.4661 325.512 70.6137 324.766 70.5538C324.018 70.497 323.282 70.2187 322.56 69.7189C322.049 69.3656 321.636 68.963 321.322 68.5111C321.009 68.0593 320.805 67.5709 320.712 67.0461C320.619 66.5212 320.645 65.9706 320.791 65.3941C320.934 64.8207 321.209 64.2396 321.616 63.6508L322.01 63.0806L328.249 67.3945L327.332 68.7218L323.219 65.8781C323.054 66.1233 322.962 66.3797 322.943 66.6473C322.923 66.9149 322.975 67.1695 323.098 67.4112C323.216 67.6538 323.401 67.8624 323.654 68.0369C323.909 68.2135 324.178 68.3142 324.46 68.3389C324.74 68.3668 325.007 68.3235 325.261 68.2091C325.513 68.0978 325.728 67.9212 325.904 67.6794L326.838 66.3288C327.04 66.0359 327.16 65.739 327.198 65.4381C327.234 65.1403 327.187 64.8574 327.06 64.5894C326.932 64.3214 326.721 64.0861 326.429 63.8836C326.226 63.7436 326.023 63.6446 325.819 63.5865C325.615 63.5284 325.416 63.5129 325.222 63.5401C325.029 63.5673 324.847 63.6399 324.678 63.7578L322.622 62.2462C323.034 61.836 323.509 61.5588 324.046 61.4145C324.578 61.2712 325.149 61.2677 325.76 61.4042C326.368 61.5437 326.985 61.83 327.611 62.263ZM317.827 61.7496L320.658 57.6557L322.943 59.2358L317.98 66.4142L315.807 64.9117L316.718 63.5937L316.639 63.5388C316.176 63.8682 315.667 64.0251 315.111 64.0094C314.554 63.9968 314.01 63.8074 313.48 63.4411C312.976 63.0921 312.616 62.6757 312.403 62.192C312.184 61.7091 312.112 61.1941 312.186 60.6469C312.256 60.1006 312.478 59.5591 312.854 59.0222L316.017 54.4469L318.303 56.027L315.449 60.1537C315.17 60.5504 315.056 60.9319 315.107 61.2984C315.154 61.6628 315.359 61.9699 315.72 62.2198C315.96 62.3857 316.208 62.4792 316.466 62.5004C316.717 62.5225 316.96 62.4715 317.193 62.3472C317.423 62.2208 317.635 62.0216 317.827 61.7496ZM314.602 53.4686L309.639 60.647L307.354 59.0669L312.317 51.8885L314.602 53.4686ZM307.916 60.6919C308.237 60.9138 308.439 61.2104 308.523 61.5816C308.605 61.956 308.541 62.2943 308.333 62.5966C308.126 62.8957 307.834 63.0714 307.457 63.1239C307.078 63.1795 306.727 63.0963 306.407 62.8744C306.083 62.6504 305.881 62.3522 305.802 61.98C305.718 61.6087 305.78 61.2735 305.986 60.9744C306.195 60.6722 306.49 60.4933 306.869 60.4377C307.243 60.3831 307.592 60.4679 307.916 60.6919ZM310.863 50.8827L305.899 58.0611L303.726 56.5585L304.637 55.2406L304.558 55.1857C304.107 55.5185 303.616 55.6882 303.087 55.695C302.557 55.7018 302.046 55.535 301.554 55.1946C301.055 54.85 300.717 54.4271 300.538 53.926C300.36 53.425 300.371 52.9261 300.571 52.4293L300.497 52.3776C300.067 52.7118 299.57 52.872 299.004 52.8582C298.435 52.8475 297.886 52.6591 297.357 52.2929C296.678 51.8232 296.277 51.2238 296.155 50.4947C296.031 49.7686 296.23 49.027 296.754 48.2699L300.095 43.4376L302.38 45.0177L299.401 49.3267C299.153 49.685 299.057 50.0211 299.111 50.3352C299.164 50.6523 299.336 50.9121 299.629 51.1146C299.944 51.3322 300.262 51.4007 300.585 51.32C300.903 51.2403 301.18 51.029 301.417 50.6863L304.38 46.4008L306.577 47.9195L303.581 52.2518C303.351 52.5852 303.259 52.9109 303.306 53.229C303.354 53.5472 303.525 53.8085 303.821 54.0132C304.021 54.1511 304.23 54.2245 304.449 54.2335C304.667 54.2456 304.879 54.1945 305.087 54.0804C305.292 53.9641 305.476 53.7875 305.64 53.5507L308.577 49.3025L310.863 50.8827ZM298.679 42.4585L293.715 49.6369L291.43 48.0568L296.393 40.8783L298.679 42.4585ZM291.992 49.6818C292.313 49.9037 292.515 50.2002 292.599 50.5715C292.681 50.9459 292.618 51.2842 292.409 51.5864C292.202 51.8855 291.91 52.0613 291.533 52.1138C291.154 52.1693 290.804 52.0862 290.483 51.8643C290.159 51.6402 289.957 51.3421 289.879 50.9699C289.795 50.5986 289.856 50.2634 290.063 49.9643C290.272 49.6621 290.566 49.4832 290.945 49.4276C291.319 49.373 291.668 49.4577 291.992 49.6818ZM291.677 37.4169C292.428 37.9361 292.974 38.5322 293.314 39.2051C293.65 39.8791 293.773 40.593 293.685 41.347C293.591 42.1019 293.28 42.8611 292.752 43.6244C292.24 44.3659 291.645 44.9127 290.969 45.2648C290.29 45.62 289.578 45.7676 288.832 45.7077C288.084 45.6509 287.348 45.3726 286.625 44.8728C286.114 44.5195 285.702 44.1169 285.388 43.665C285.074 43.2132 284.871 42.7248 284.778 42.2C284.685 41.6751 284.711 41.1245 284.856 40.548C284.999 39.9746 285.275 39.3935 285.682 38.8047L286.076 38.2345L292.315 42.5484L291.397 43.8757L287.285 41.032C287.12 41.2772 287.028 41.5336 287.008 41.8012C286.989 42.0688 287.041 42.3234 287.164 42.5651C287.282 42.8077 287.467 43.0163 287.719 43.1908C287.975 43.3674 288.244 43.4681 288.526 43.4929C288.806 43.5207 289.073 43.4774 289.327 43.363C289.579 43.2517 289.793 43.0751 289.97 42.8333L290.904 41.4827C291.106 41.1898 291.226 40.8929 291.264 40.592C291.299 40.2942 291.253 40.0113 291.125 39.7433C290.998 39.4753 290.787 39.24 290.494 39.0375C290.292 38.8975 290.089 38.7985 289.885 38.7404C289.681 38.6823 289.482 38.6668 289.288 38.694C289.094 38.7212 288.913 38.7938 288.744 38.9117L286.687 37.4001C287.1 36.9899 287.575 36.7127 288.112 36.5684C288.644 36.4251 289.215 36.4216 289.826 36.5581C290.434 36.6976 291.051 36.9839 291.677 37.4169ZM281.893 36.9035L284.724 32.8096L287.009 34.3897L282.046 41.5681L279.873 40.0656L280.784 38.7476L280.704 38.6927C280.242 39.0221 279.733 39.179 279.177 39.1633C278.619 39.1507 278.076 38.9613 277.546 38.595C277.041 38.246 276.682 37.8297 276.469 37.3459C276.25 36.863 276.178 36.348 276.252 35.8008C276.321 35.2545 276.544 34.713 276.92 34.1761L280.083 29.6008L282.368 31.181L279.515 35.3076C279.236 35.7043 279.122 36.0858 279.173 36.4523C279.22 36.8167 279.424 37.1238 279.786 37.3737C280.026 37.5396 280.274 37.6331 280.531 37.6543C280.783 37.6764 281.026 37.6254 281.259 37.5011C281.489 37.3747 281.7 37.1755 281.893 36.9035ZM269.653 32.9993L270.816 31.3169L275.345 34.4481L274.182 36.1305L269.653 32.9993ZM272.044 37.1944L269.758 35.6143L274.35 28.9733C274.447 28.8331 274.504 28.7043 274.521 28.5869C274.532 28.4704 274.507 28.3634 274.446 28.2657C274.382 28.1711 274.29 28.0818 274.168 27.9977C274.081 27.9374 273.984 27.8817 273.876 27.8305C273.764 27.7802 273.678 27.7441 273.62 27.7221L274.414 25.8332C274.545 25.8775 274.726 25.9452 274.958 26.0363C275.186 26.1253 275.442 26.2583 275.725 26.4354C276.278 26.7811 276.695 27.1611 276.974 27.5756C277.249 27.9911 277.376 28.4293 277.357 28.8903C277.335 29.3491 277.152 29.8193 276.81 30.301L272.044 37.1944ZM270.27 22.6156C271.024 23.1369 271.566 23.7392 271.895 24.4225C272.218 25.1067 272.335 25.8274 272.244 26.5845C272.148 27.3425 271.846 28.0892 271.338 28.8245C270.827 29.5629 270.235 30.1092 269.562 30.4635C268.883 30.8187 268.168 30.9641 267.416 30.8999C266.658 30.8366 265.902 30.5443 265.149 30.023C264.395 29.5017 263.856 28.8989 263.532 28.2146C263.203 27.5313 263.087 26.8107 263.183 26.0526C263.273 25.2955 263.574 24.5478 264.084 23.8094C264.593 23.0741 265.186 22.5288 265.865 22.1736C266.538 21.8194 267.253 21.6739 268.011 21.7372C268.763 21.8014 269.516 22.0942 270.27 22.6156ZM269.064 24.3304C268.79 24.1408 268.499 24.0644 268.193 24.1013C267.887 24.1381 267.58 24.2716 267.274 24.5018C266.964 24.7298 266.674 25.0401 266.402 25.4326C266.126 25.8314 265.936 26.2159 265.832 26.5861C265.725 26.9542 265.709 27.288 265.782 27.5877C265.856 27.8873 266.03 28.1319 266.304 28.3215C266.588 28.5175 266.886 28.5993 267.198 28.5668C267.508 28.5321 267.818 28.4007 268.127 28.1727C268.434 27.9426 268.725 27.6281 269.001 27.2293C269.272 26.8367 269.461 26.4564 269.568 26.0884C269.672 25.7182 269.686 25.3822 269.609 25.0804C269.529 24.7764 269.347 24.5264 269.064 24.3304Z" fill="#3A506B"/>
<path d="M136.85 48.4268L144.206 57.4434L137.919 62.5722L136.475 60.8024L140.583 57.4514L139.074 55.6023L135.288 58.6911L133.841 56.9168L137.627 53.828L136.115 51.9745L132.007 55.3255L130.563 53.5556L136.85 48.4268ZM130.192 60.282L127.046 56.4253L129.199 54.669L134.715 61.4315L132.668 63.1016L131.655 61.86L131.58 61.9211C131.768 62.4571 131.778 62.9897 131.608 63.519C131.441 64.0513 131.108 64.5209 130.609 64.928C130.134 65.3159 129.634 65.5452 129.11 65.6158C128.585 65.6918 128.07 65.6181 127.565 65.3945C127.06 65.1763 126.601 64.8122 126.19 64.302L122.674 59.9918L124.827 58.2355L127.998 62.123C128.302 62.5011 128.637 62.7168 129.003 62.7701C129.366 62.8258 129.718 62.7148 130.058 62.437C130.284 62.2526 130.443 62.0399 130.535 61.7989C130.626 61.5631 130.644 61.316 130.59 61.0574C130.532 60.8012 130.4 60.5427 130.192 60.282ZM123.041 70.9556L121.748 69.3706L126.014 65.8903L127.307 67.4753L123.041 70.9556ZM127.735 69.8246L125.582 71.5809L120.478 65.3247C120.37 65.1926 120.262 65.1023 120.154 65.0536C120.046 65.0103 119.936 65.0045 119.825 65.0363C119.716 65.0711 119.605 65.1352 119.49 65.2285C119.408 65.2956 119.328 65.3736 119.249 65.4625C119.169 65.5567 119.111 65.6288 119.073 65.6789L117.48 64.3905C117.558 64.2774 117.674 64.1222 117.826 63.9249C117.975 63.73 118.174 63.5214 118.422 63.2989C118.908 62.8636 119.389 62.5691 119.865 62.4155C120.34 62.2672 120.797 62.2664 121.234 62.4131C121.668 62.5621 122.069 62.868 122.437 63.3307L127.735 69.8246ZM116.425 65.0892L121.942 71.8517L119.851 73.5577L118.845 72.325L118.775 72.3824C119.015 72.9291 119.085 73.4248 118.983 73.8695C118.884 74.3171 118.65 74.6917 118.28 74.9934C118.18 75.0748 118.071 75.1513 117.954 75.2228C117.838 75.2973 117.724 75.3584 117.612 75.4062L116.086 73.5351C116.217 73.4865 116.375 73.4043 116.559 73.2883C116.74 73.1748 116.895 73.0653 117.024 72.96C117.28 72.7517 117.463 72.5065 117.575 72.2244C117.687 71.9477 117.719 71.6601 117.671 71.3618C117.623 71.0689 117.488 70.7874 117.268 70.5173L114.273 66.8455L116.425 65.0892ZM108.293 71.5109C109 70.9338 109.725 70.5752 110.466 70.435C111.206 70.3002 111.926 70.3799 112.626 70.6744C113.325 70.9741 113.968 71.4836 114.555 72.2027C115.125 72.9012 115.485 73.6243 115.635 74.3718C115.788 75.1222 115.732 75.8475 115.467 76.5475C115.204 77.2505 114.733 77.8797 114.052 78.4352C113.57 78.8279 113.069 79.1122 112.548 79.2881C112.027 79.4641 111.501 79.5238 110.971 79.4674C110.441 79.4109 109.919 79.2328 109.406 78.933C108.895 78.6362 108.413 78.2104 107.96 77.6557L107.522 77.1186L113.4 72.3237L114.42 73.5741L110.545 76.7347C110.735 76.9613 110.956 77.121 111.208 77.2138C111.459 77.3067 111.718 77.3275 111.985 77.2765C112.25 77.2308 112.502 77.1109 112.74 76.917C112.981 76.7206 113.152 76.4903 113.254 76.2261C113.359 75.9648 113.391 75.6962 113.352 75.4203C113.315 75.1473 113.205 74.8925 113.022 74.6559L111.984 73.3835C111.759 73.1076 111.507 72.9098 111.228 72.79C110.952 72.6731 110.668 72.6388 110.375 72.6872C110.082 72.7355 109.797 72.8723 109.521 73.0973C109.33 73.253 109.179 73.4207 109.066 73.6004C108.954 73.7801 108.884 73.9669 108.856 74.1606C108.828 74.3543 108.848 74.5487 108.914 74.7439L106.891 76.2993C106.611 75.7891 106.477 75.2559 106.488 74.6997C106.498 74.1488 106.653 73.5992 106.954 73.0509C107.257 72.5055 107.703 71.9922 108.293 71.5109ZM98.7521 75.0487C99.3949 74.5243 100.018 74.1649 100.622 73.9704C101.226 73.7759 101.786 73.7276 102.301 73.8257C102.816 73.9237 103.26 74.1478 103.634 74.498L101.689 76.2754C101.538 76.1686 101.369 76.1057 101.183 76.0868C100.993 76.0702 100.792 76.1023 100.579 76.183C100.364 76.2661 100.141 76.4011 99.9125 76.5878C99.5514 76.8824 99.3254 77.2134 99.2342 77.5811C99.1377 77.9482 99.2667 78.349 99.6211 78.7834L100.591 79.9721L100.666 79.911C100.581 79.6332 100.558 79.3415 100.597 79.0358C100.636 78.7302 100.746 78.4251 100.928 78.1204C101.107 77.8182 101.362 77.5318 101.694 77.2612C102.187 76.859 102.732 76.6047 103.33 76.4984C103.927 76.3975 104.546 76.4886 105.188 76.7717C105.829 77.0602 106.462 77.5875 107.087 78.3535C107.731 79.1431 108.135 79.8962 108.299 80.6128C108.466 81.3324 108.446 81.9818 108.239 82.5612C108.029 83.143 107.688 83.6266 107.216 84.0121C106.86 84.3018 106.506 84.488 106.153 84.5707C105.8 84.6586 105.463 84.6743 105.143 84.6176C104.823 84.5609 104.537 84.4645 104.284 84.3285L104.222 84.3788L105.167 85.5367L103.023 87.2858L97.4846 80.4969C97.0177 79.9246 96.7677 79.3244 96.7344 78.6965C96.7012 78.0685 96.8603 77.4426 97.2117 76.8186C97.5606 76.1918 98.0741 75.6018 98.7521 75.0487ZM102.224 79.4391C101.963 79.6522 101.796 79.9032 101.723 80.192C101.651 80.4808 101.67 80.795 101.781 81.1347C101.892 81.4744 102.095 81.8248 102.389 82.1858C102.689 82.5527 102.996 82.8275 103.311 83.0103C103.626 83.1983 103.936 83.2877 104.241 83.2782C104.543 83.2712 104.825 83.1611 105.086 82.948C105.353 82.7302 105.52 82.4724 105.585 82.1748C105.65 81.8772 105.622 81.5553 105.501 81.2092C105.379 80.8685 105.171 80.5176 104.877 80.1565C104.582 79.7955 104.281 79.5254 103.974 79.3461C103.666 79.1668 103.365 79.0824 103.071 79.093C102.773 79.1059 102.491 79.2212 102.224 79.4391ZM94.1339 83.0837C94.5654 82.7318 95.0071 82.4912 95.459 82.3621C95.9104 82.2382 96.3527 82.2441 96.7858 82.3796C97.2184 82.5204 97.6167 82.8138 97.9807 83.26C98.2872 83.6357 98.4797 84.0065 98.5583 84.3726C98.637 84.7386 98.6262 85.0969 98.526 85.4475C98.4258 85.7981 98.2581 86.1378 98.0228 86.4666C97.79 86.7983 97.5138 87.119 97.1943 87.4285C96.8386 87.7773 96.5589 88.0666 96.3552 88.2964C96.1539 88.529 96.0303 88.7251 95.9845 88.8847C95.9382 89.0496 95.9713 89.201 96.0838 89.339L96.1018 89.361C96.2862 89.587 96.5064 89.6982 96.7625 89.6945C97.0187 89.6909 97.2788 89.5813 97.543 89.3659C97.8277 89.1336 98.0063 88.8852 98.0789 88.6206C98.1515 88.3561 98.1227 88.0961 97.9925 87.8406L100.036 86.2912C100.312 86.75 100.46 87.2402 100.48 87.7618C100.499 88.2887 100.37 88.8194 100.092 89.3539C99.8141 89.8937 99.3727 90.4103 98.7681 90.9035C98.3366 91.2555 97.897 91.5286 97.4492 91.7228C97.0039 91.9199 96.5672 92.0317 96.1391 92.0583C95.7134 92.0878 95.3135 92.023 94.9393 91.8639C94.5621 91.7072 94.2275 91.4498 93.9353 91.0917L90.1857 86.4953L92.2109 84.8432L92.9795 85.7853L93.0323 85.7422C92.9659 85.4151 92.962 85.0957 93.0205 84.784C93.0761 84.4746 93.1978 84.1774 93.3856 83.8922C93.5704 83.6094 93.8199 83.3399 94.1339 83.0837ZM94.6184 85.0349C94.3866 85.2241 94.2165 85.441 94.1082 85.6858C93.997 85.933 93.9526 86.1842 93.9752 86.4396C94.0001 86.6979 94.1024 86.9371 94.282 87.1572L94.8064 87.8C94.8417 87.7174 94.8926 87.627 94.9591 87.5288C95.0226 87.4329 95.0962 87.3314 95.1798 87.2241C95.2634 87.1168 95.3523 87.0101 95.4465 86.9038C95.5407 86.7976 95.6317 86.6965 95.7196 86.6004C95.8958 86.4029 96.0282 86.2117 96.117 86.0269C96.2028 85.8445 96.2395 85.6678 96.2273 85.497C96.2144 85.3314 96.1482 85.1753 96.0285 85.0286C95.8465 84.8055 95.6284 84.6999 95.3741 84.7118C95.1169 84.7261 94.865 84.8338 94.6184 85.0349ZM82.8205 88.2801C83.0788 88.0694 83.3392 87.8912 83.6016 87.7456C83.8617 87.597 84.1003 87.4879 84.3173 87.4184L85.1168 89.3692C84.8481 89.4712 84.6238 89.5857 84.4439 89.7128C84.2612 89.8424 84.1357 89.9912 84.0675 90.1593C83.994 90.3268 83.9917 90.5217 84.0607 90.7441L84.1422 91.0149L92.264 96.0628L90.0098 97.9018L84.8274 94.0929L84.757 94.1504L87.4299 100.006L85.1625 101.856L81.6669 92.3669C81.4885 91.8966 81.3973 91.4283 81.3935 90.9622C81.3843 90.4955 81.4914 90.0366 81.7149 89.5854C81.9354 89.1366 82.3039 88.7016 82.8205 88.2801ZM131.323 28.4152L138.679 37.4318L132.392 42.5607L130.948 40.7908L135.056 37.4398L133.547 35.5907L129.761 38.6795L128.314 36.9052L132.1 33.8164L130.588 31.9629L126.48 35.3139L125.036 33.544L131.323 28.4152ZM127.357 42.914L124.426 41.595L125.09 44.7637L122.919 46.5344L122.049 41.6124L117.332 39.8294L119.485 38.0731L122.558 39.3056L121.937 36.0726L124.121 34.2911L124.916 39.2742L129.541 41.1326L127.357 42.914ZM114.351 38.0378L121.936 47.3362L119.805 49.0746L118.861 47.9167L118.795 47.9705C118.874 48.2478 118.911 48.5477 118.905 48.8702C118.897 49.1951 118.815 49.5206 118.661 49.8469C118.506 50.1785 118.251 50.4891 117.896 50.7789C117.426 51.162 116.887 51.3967 116.278 51.4829C115.666 51.5716 115.024 51.4621 114.353 51.1544C113.681 50.8466 113.021 50.2951 112.372 49.4997C111.747 48.7336 111.346 47.9929 111.168 47.2776C110.987 46.5647 110.997 45.9115 111.197 45.318C111.394 44.7268 111.743 44.2278 112.242 43.8207C112.582 43.543 112.922 43.3581 113.263 43.2661C113.603 43.1741 113.933 43.1497 114.252 43.1928C114.567 43.2382 114.856 43.3281 115.117 43.4622L115.161 43.4263L112.198 39.7941L114.351 38.0378ZM117.069 45.6754C116.772 45.3114 116.465 45.0339 116.148 44.8429C115.828 44.6543 115.514 44.5606 115.207 44.5617C114.9 44.5682 114.615 44.678 114.354 44.8911C114.09 45.1066 113.925 45.3632 113.86 45.6608C113.797 45.9613 113.829 46.2849 113.955 46.6316C114.079 46.9806 114.289 47.3371 114.586 47.7011C114.883 48.065 115.189 48.341 115.503 48.5291C115.815 48.7196 116.123 48.8128 116.428 48.8087C116.73 48.807 117.014 48.6972 117.281 48.4793C117.545 48.2638 117.711 48.0087 117.779 47.714C117.846 47.4194 117.821 47.0978 117.703 46.7493C117.582 46.4032 117.371 46.0452 117.069 45.6754ZM113.692 57.8161L106.336 48.7995L108.489 47.0432L115.845 56.0598L113.692 57.8161ZM104.966 49.9174L110.483 56.6798L108.33 58.4361L102.813 51.6737L104.966 49.9174ZM110.047 58.3479C110.349 58.1012 110.69 57.9891 111.07 58.0115C111.453 58.0369 111.76 58.1919 111.992 58.4766C112.222 58.7584 112.31 59.0876 112.256 59.4644C112.204 59.8441 112.027 60.1573 111.724 60.4039C111.419 60.6529 111.077 60.7636 110.697 60.7358C110.317 60.7134 110.012 60.5613 109.782 60.2796C109.55 59.9949 109.46 59.6627 109.512 59.283C109.563 58.9086 109.742 58.5969 110.047 58.3479ZM98.1818 55.2391C98.8951 54.6573 99.6268 54.3048 100.377 54.1817C101.124 54.0609 101.847 54.1505 102.546 54.4502C103.248 54.7529 103.88 55.2491 104.443 55.9389C105.008 56.6316 105.367 57.3505 105.52 58.0956C105.673 58.8461 105.615 59.5752 105.347 60.2829C105.076 60.993 104.586 61.6366 103.879 62.2137C103.254 62.7237 102.617 63.0549 101.969 63.2072C101.318 63.3619 100.693 63.3389 100.094 63.1381C99.4948 62.9427 98.9615 62.5736 98.4943 62.0309L100.506 60.3895C100.83 60.7023 101.169 60.878 101.523 60.9167C101.874 60.9577 102.204 60.8525 102.512 60.6011C102.762 60.3975 102.923 60.1487 102.996 59.8546C103.071 59.5634 103.05 59.2382 102.933 58.879C102.816 58.5252 102.594 58.1487 102.268 57.7495C101.943 57.3504 101.616 57.0547 101.288 56.8626C100.96 56.6759 100.644 56.5887 100.341 56.601C100.041 56.6163 99.7661 56.7257 99.5167 56.9293C99.3171 57.0921 99.1757 57.2783 99.0925 57.4879C99.0064 57.6999 98.9805 57.9288 99.0148 58.1746C99.0514 58.4233 99.1536 58.6773 99.3211 58.9366L97.3091 60.578C96.8747 60.0036 96.6166 59.4026 96.5349 58.7751C96.4503 58.15 96.5452 57.5324 96.8198 56.9222C97.0938 56.3173 97.5479 55.7563 98.1818 55.2391ZM92.0454 60.2671C92.4769 59.9151 92.9186 59.6746 93.3705 59.5454C93.8219 59.4216 94.2642 59.4275 94.6973 59.5629C95.1299 59.7037 95.5282 59.9972 95.8922 60.4433C96.1987 60.819 96.3912 61.1899 96.4698 61.5559C96.5485 61.922 96.5377 62.2803 96.4375 62.6309C96.3373 62.9815 96.1696 63.3212 95.9343 63.65C95.7015 63.9817 95.4253 64.3023 95.1058 64.6118C94.7501 64.9607 94.4704 65.25 94.2667 65.4797C94.0654 65.7124 93.9418 65.9085 93.896 66.0681C93.8497 66.233 93.8828 66.3844 93.9953 66.5223L94.0133 66.5444C94.1977 66.7704 94.4179 66.8816 94.674 66.8779C94.9302 66.8743 95.1903 66.7647 95.4545 66.5492C95.7392 66.317 95.9178 66.0686 95.9904 65.804C96.063 65.5395 96.0342 65.2795 95.904 65.0239L97.9471 63.4746C98.2236 63.9334 98.3717 64.4236 98.3915 64.9452C98.4107 65.4721 98.2815 66.0028 98.0038 66.5373C97.7256 67.0771 97.2842 67.5937 96.6796 68.0869C96.2481 68.4389 95.8085 68.712 95.3607 68.9061C94.9154 69.1033 94.4787 69.2151 94.0506 69.2417C93.6249 69.2712 93.225 69.2064 92.8508 69.0473C92.4736 68.8905 92.139 68.6331 91.8468 68.2751L88.0972 63.6787L90.1224 62.0266L90.891 62.9687L90.9438 62.9256C90.8774 62.5985 90.8735 62.2791 90.932 61.9674C90.9876 61.658 91.1093 61.3608 91.2971 61.0756C91.4819 60.7928 91.7314 60.5233 92.0454 60.2671ZM92.5299 62.2183C92.2981 62.4075 92.128 62.6244 92.0197 62.8692C91.9085 63.1164 91.8641 63.3676 91.8867 63.623C91.9116 63.8813 92.0139 64.1205 92.1935 64.3406L92.7179 64.9834C92.7532 64.9008 92.8041 64.8104 92.8706 64.7122C92.9341 64.6163 93.0077 64.5147 93.0913 64.4075C93.1749 64.3002 93.2638 64.1934 93.358 64.0872C93.4522 63.981 93.5433 63.8799 93.6311 63.7838C93.8073 63.5863 93.9397 63.3951 94.0285 63.2103C94.1143 63.0278 94.151 62.8512 94.1388 62.6803C94.1259 62.5148 94.0597 62.3587 93.94 62.2119C93.758 61.9889 93.5399 61.8833 93.2856 61.8952C93.0284 61.9095 92.7765 62.0172 92.5299 62.2183ZM83.5199 67.2001C84.2332 66.6183 84.9649 66.2658 85.715 66.1427C86.4622 66.022 87.1854 66.1115 87.8846 66.4112C88.5861 66.7139 89.2183 67.2102 89.781 67.8999C90.346 68.5926 90.7052 69.3115 90.8584 70.0566C91.0112 70.8071 90.9533 71.5362 90.685 72.2439C90.4137 72.9541 89.9244 73.5977 89.2171 74.1747C88.5919 74.6847 87.9553 75.0159 87.3071 75.1682C86.6561 75.3229 86.0311 75.2999 85.4323 75.0992C84.8329 74.9037 84.2996 74.5347 83.8324 73.9919L85.8444 72.3505C86.1681 72.6633 86.5069 72.8391 86.8611 72.8777C87.2123 72.9187 87.542 72.8135 87.8502 72.5621C88.0997 72.3586 88.2609 72.1097 88.3338 71.8156C88.4091 71.5244 88.3882 71.1992 88.2712 70.8401C88.1536 70.4862 87.932 70.1097 87.6064 69.7106C87.2808 69.3114 86.954 69.0157 86.6262 68.8237C86.2979 68.6369 85.9823 68.5497 85.6796 68.562C85.3792 68.5773 85.1042 68.6867 84.8548 68.8903C84.6552 69.0531 84.5138 69.2393 84.4306 69.4489C84.3445 69.661 84.3186 69.8899 84.3528 70.1356C84.3895 70.3844 84.4916 70.6384 84.6592 70.8976L82.6472 72.539C82.2128 71.9646 81.9547 71.3636 81.873 70.7361C81.7883 70.111 81.8833 69.4934 82.1579 68.8832C82.4319 68.2783 82.886 67.7173 83.5199 67.2001ZM79.3833 70.7874L84.9 77.5499L82.7471 79.3062L77.2304 72.5437L79.3833 70.7874ZM84.4642 79.2179C84.7666 78.9713 85.1077 78.8592 85.4877 78.8816C85.8702 78.9069 86.1775 79.0619 86.4097 79.3466C86.6396 79.6284 86.7274 79.9577 86.673 80.3345C86.621 80.7142 86.4439 81.0273 86.1415 81.274C85.8363 81.523 85.4939 81.6336 85.1144 81.6059C84.7344 81.5835 84.4295 81.4314 84.1996 81.1496C83.9674 80.8649 83.8772 80.5327 83.9292 80.153C83.9806 79.7786 84.159 79.4669 84.4642 79.2179ZM72.5992 76.1092C73.3095 75.5297 74.0385 75.177 74.7863 75.0509C75.5335 74.9302 76.2581 75.0185 76.9602 75.3159C77.6618 75.6186 78.2951 76.1163 78.8602 76.8089C79.4277 77.5046 79.788 78.2249 79.9413 78.9701C80.094 79.7205 80.035 80.4482 79.7643 81.153C79.493 81.8631 79.0022 82.5079 78.2919 83.0873C77.5816 83.6668 76.8529 84.0169 76.1057 84.1376C75.3579 84.2637 74.6332 84.1753 73.9317 83.8726C73.2296 83.5753 72.5948 83.0788 72.0273 82.3832C71.4622 81.6905 71.1033 80.9689 70.9506 80.2184C70.7974 79.4733 70.8564 78.7457 71.1277 78.0355C71.3984 77.3307 71.8889 76.6886 72.5992 76.1092ZM73.9113 77.7445C73.653 77.9552 73.499 78.2128 73.4492 78.5174C73.3995 78.822 73.4426 79.1534 73.5785 79.5118C73.7115 79.8726 73.9289 80.2379 74.2306 80.6077C74.5371 80.9834 74.8537 81.2726 75.1804 81.4754C75.5042 81.6805 75.8203 81.7893 76.1286 81.8018C76.4369 81.8142 76.7202 81.7151 76.9785 81.5044C77.2456 81.2865 77.407 81.0229 77.4626 80.7135C77.5153 80.4066 77.4751 80.0727 77.3421 79.7119C77.2062 79.3535 76.9849 78.9865 76.6785 78.6108C76.3768 78.241 76.064 77.9535 75.7402 77.7483C75.4135 77.5456 75.0945 77.4392 74.7832 77.4291C74.469 77.4215 74.1784 77.5266 73.9113 77.7445ZM79.6645 83.2508L80.395 85.9619L78.4886 87.5171L78.1984 84.4468L79.6645 83.2508ZM69.1774 85.5367L66.0311 81.6799L68.184 79.9236L73.7008 86.6861L71.6535 88.3562L70.6407 87.1147L70.5659 87.1757C70.7538 87.7117 70.763 88.2443 70.5935 88.7736C70.4265 89.3059 70.0935 89.7756 69.5945 90.1826C69.119 90.5705 68.6192 90.7998 68.0952 90.8705C67.5706 90.9465 67.0558 90.8727 66.5508 90.6492C66.0452 90.431 65.5868 90.0668 65.1755 89.5566L61.6593 85.2464L63.8122 83.4901L66.9836 87.3777C67.2872 87.7557 67.622 87.9714 67.9881 88.0247C68.3513 88.0804 68.7031 87.9694 69.0436 87.6916C69.2696 87.5073 69.4285 87.2946 69.5202 87.0535C69.6114 86.8178 69.6298 86.5706 69.5753 86.312C69.5178 86.0558 69.3852 85.7973 69.1774 85.5367Z" fill="#3A506B"/>
<path d="M51.0781 220.744C51.2787 220.599 51.4419 220.436 51.5679 220.255C51.6974 220.073 51.7903 219.874 51.8466 219.658C51.9029 219.443 51.9197 219.214 51.8971 218.971C51.8779 218.727 51.8189 218.474 51.7199 218.212C51.5206 217.684 51.2205 217.275 50.8196 216.985C50.42 216.699 49.9362 216.543 49.3682 216.518C48.8038 216.493 48.1743 216.611 47.4797 216.873C46.7815 217.136 46.2243 217.462 45.8079 217.85C45.3915 218.238 45.1262 218.672 45.012 219.152C44.8977 219.633 44.9435 220.146 45.1495 220.692C45.3314 221.174 45.5631 221.552 45.8448 221.826C46.1313 222.102 46.4527 222.273 46.8088 222.337C47.1649 222.401 47.5397 222.358 47.9331 222.21L48.0591 222.721L47.0601 220.074L48.9791 219.35L50.7505 224.044L49.3099 224.587C48.3353 224.955 47.4225 225.063 46.5714 224.91C45.7217 224.761 44.9743 224.395 44.3294 223.813C43.6858 223.234 43.1875 222.477 42.8344 221.541C42.4425 220.503 42.3232 219.505 42.4763 218.549C42.6295 217.592 43.0396 216.737 43.7066 215.983C44.3771 215.228 45.2865 214.634 46.4347 214.2C47.3278 213.863 48.17 213.697 48.9614 213.702C49.7563 213.706 50.4843 213.854 51.1455 214.147C51.808 214.444 52.3817 214.859 52.8665 215.393C53.3526 215.93 53.7328 216.562 54.007 217.288C54.245 217.919 54.376 218.54 54.3999 219.15C54.4251 219.764 54.3518 220.342 54.18 220.885C54.0096 221.431 53.7471 221.921 53.3924 222.354C53.0378 222.788 52.6014 223.139 52.0832 223.407L51.0781 220.744ZM46.1125 230.195C45.9159 229.674 45.8282 229.179 45.8493 228.709C45.8754 228.242 46.0215 227.825 46.2876 227.457C46.5586 227.092 46.9635 226.807 47.5022 226.604C47.9558 226.433 48.3686 226.368 48.7407 226.41C49.1127 226.452 49.449 226.576 49.7496 226.782C50.0502 226.989 50.3189 227.256 50.5559 227.583C50.7964 227.909 51.0127 228.273 51.2046 228.674C51.4223 229.123 51.6077 229.48 51.7608 229.746C51.9174 230.011 52.064 230.19 52.2008 230.284C52.3424 230.381 52.4965 230.397 52.6631 230.334L52.6897 230.324C52.9625 230.221 53.138 230.048 53.2159 229.804C53.2939 229.56 53.2727 229.279 53.1523 228.96C53.0226 228.616 52.8438 228.367 52.6161 228.215C52.3883 228.062 52.1326 228.006 51.849 228.049L51.0293 225.619C51.5522 225.503 52.0641 225.518 52.5649 225.665C53.0706 225.814 53.5327 226.105 53.9513 226.539C54.3747 226.974 54.7241 227.557 54.9996 228.287C55.1962 228.808 55.3154 229.311 55.3572 229.798C55.4026 230.282 55.3698 230.732 55.259 231.146C55.1517 231.559 54.9631 231.918 54.6933 232.222C54.4248 232.53 54.0744 232.765 53.6421 232.929L48.0923 235.023L47.1695 232.578L48.3071 232.148L48.283 232.085C47.9517 232.044 47.6476 231.946 47.3707 231.791C47.095 231.64 46.8519 231.43 46.6412 231.162C46.4318 230.897 46.2556 230.574 46.1125 230.195ZM48.1165 230.356C48.2221 230.636 48.3738 230.866 48.5714 231.047C48.7704 231.231 48.9946 231.352 49.2439 231.412C49.4967 231.471 49.756 231.45 50.0218 231.349L50.7979 231.057C50.7308 230.997 50.6613 230.92 50.5893 230.826C50.5186 230.735 50.4457 230.633 50.3705 230.519C50.2954 230.406 50.2224 230.288 50.1517 230.165C50.0809 230.042 50.0139 229.923 49.9507 229.809C49.8195 229.58 49.6803 229.393 49.5333 229.25C49.3876 229.111 49.2318 229.02 49.0659 228.977C48.9049 228.937 48.7358 228.95 48.5586 229.017C48.2892 229.119 48.1198 229.292 48.0502 229.537C47.982 229.785 48.0041 230.058 48.1165 230.356ZM48.6921 236.612L56.8573 233.531L57.8102 236.056L56.3218 236.618L56.3539 236.703C56.9487 236.648 57.4408 236.74 57.8301 236.978C58.2229 237.214 58.5036 237.556 58.6721 238.002C58.7176 238.123 58.7555 238.25 58.786 238.384C58.8199 238.517 58.8417 238.645 58.8513 238.767L56.592 239.619C56.5877 239.479 56.5599 239.303 56.5085 239.092C56.4584 238.884 56.4039 238.702 56.3451 238.546C56.2287 238.238 56.0546 237.986 55.8228 237.79C55.5958 237.596 55.3333 237.475 55.0353 237.425C54.7422 237.378 54.4326 237.416 54.1065 237.539L49.6731 239.212L48.6921 236.612ZM51.6844 244.96C51.4878 244.439 51.4001 243.944 51.4213 243.474C51.4474 243.007 51.5935 242.589 51.8596 242.222C52.1306 241.856 52.5354 241.572 53.0741 241.369C53.5277 241.198 53.9406 241.133 54.3126 241.175C54.6847 241.216 55.021 241.341 55.3216 241.547C55.6221 241.753 55.8909 242.02 56.1279 242.348C56.3684 242.674 56.5846 243.038 56.7765 243.439C56.9943 243.887 57.1797 244.245 57.3327 244.511C57.4893 244.775 57.636 244.955 57.7728 245.049C57.9144 245.145 58.0685 245.162 58.235 245.099L58.2616 245.089C58.5345 244.986 58.7099 244.813 58.7879 244.569C58.8659 244.325 58.8447 244.043 58.7243 243.724C58.5946 243.381 58.4158 243.132 58.1881 242.979C57.9603 242.826 57.7046 242.771 57.421 242.813L56.6013 240.384C57.1242 240.267 57.636 240.283 58.1369 240.43C58.6426 240.579 59.1047 240.87 59.5232 241.303C59.9466 241.739 60.2961 242.322 60.5716 243.052C60.7682 243.573 60.8874 244.076 60.9292 244.562C60.9745 245.047 60.9418 245.497 60.8309 245.911C60.7236 246.324 60.5351 246.683 60.2653 246.987C59.9968 247.295 59.6464 247.53 59.214 247.693L53.6642 249.788L52.7414 247.343L53.879 246.913L53.855 246.849C53.5237 246.808 53.2196 246.711 52.9426 246.556C52.667 246.405 52.4238 246.195 52.2131 245.927C52.0038 245.661 51.8275 245.339 51.6844 244.96ZM53.6884 245.121C53.7941 245.401 53.9457 245.631 54.1434 245.811C54.3424 245.995 54.5665 246.117 54.8158 246.177C55.0687 246.236 55.328 246.215 55.5938 246.114L56.3699 245.821C56.3028 245.762 56.2333 245.685 56.1612 245.59C56.0906 245.5 56.0176 245.398 55.9425 245.284C55.8673 245.171 55.7944 245.053 55.7236 244.93C55.6529 244.807 55.5859 244.688 55.5227 244.574C55.3914 244.344 55.2523 244.158 55.1053 244.015C54.9595 243.876 54.8037 243.785 54.6378 243.742C54.4768 243.702 54.3077 243.715 54.1305 243.782C53.8612 243.884 53.6918 244.057 53.6222 244.302C53.554 244.55 53.5761 244.823 53.6884 245.121ZM59.9018 252.219L55.2451 253.977L54.2641 251.377L62.4293 248.296L63.3621 250.768L61.863 251.334L61.8971 251.424C62.465 251.416 62.973 251.577 63.421 251.906C63.8726 252.233 64.212 252.698 64.4394 253.301C64.656 253.875 64.7146 254.421 64.615 254.941C64.5204 255.462 64.2868 255.927 63.9144 256.335C63.5468 256.745 63.0558 257.064 62.4414 257.291L57.2371 259.255L56.2561 256.656L60.9501 254.885C61.405 254.717 61.716 254.468 61.8828 254.138C62.0511 253.811 62.0576 253.442 61.9025 253.031C61.7995 252.758 61.6483 252.54 61.4489 252.376C61.2544 252.215 61.0259 252.119 60.7634 252.089C60.5022 252.062 60.215 252.105 59.9018 252.219ZM67.749 262.392L65.8353 263.115L63.8913 257.963L65.805 257.241L67.749 262.392ZM68.1685 257.582L69.1495 260.182L61.5957 263.032C61.4362 263.092 61.3162 263.166 61.2357 263.253C61.1601 263.342 61.1197 263.445 61.1146 263.56C61.1131 263.674 61.1384 263.8 61.1906 263.938C61.228 264.037 61.2763 264.139 61.3355 264.242C61.3996 264.347 61.4494 264.426 61.485 264.477L59.7569 265.578C59.6746 265.468 59.5641 265.309 59.4254 265.102C59.288 264.899 59.1533 264.644 59.0215 264.338C58.7631 263.739 58.6367 263.189 58.6423 262.689C58.6528 262.191 58.7971 261.758 59.0752 261.39C59.3546 261.026 59.7721 260.743 60.3276 260.541L68.1685 257.582ZM60.0843 266.8L68.2495 263.719L69.2305 266.318L61.0653 269.399L60.0843 266.8ZM69.4386 263.731L72.2413 263.9L73.1099 266.202L70.1066 265.502L69.4386 263.731ZM62.4201 273.408C62.2235 272.887 62.1358 272.392 62.157 271.922C62.1831 271.455 62.3292 271.037 62.5953 270.67C62.8663 270.304 63.2711 270.02 63.8098 269.817C64.2634 269.646 64.6763 269.581 65.0483 269.623C65.4204 269.664 65.7567 269.788 66.0572 269.995C66.3578 270.201 66.6266 270.468 66.8636 270.796C67.1041 271.122 67.3203 271.486 67.5122 271.887C67.73 272.335 67.9154 272.692 68.0684 272.959C68.225 273.223 68.3717 273.403 68.5085 273.497C68.6501 273.593 68.8042 273.61 68.9707 273.547L68.9973 273.537C69.2702 273.434 69.4456 273.261 69.5236 273.017C69.6015 272.773 69.5803 272.491 69.46 272.172C69.3303 271.829 69.1515 271.58 68.9238 271.427C68.696 271.274 68.4403 271.219 68.1567 271.261L67.337 268.832C67.8599 268.715 68.3717 268.731 68.8726 268.878C69.3783 269.027 69.8404 269.318 70.2589 269.751C70.6823 270.187 71.0318 270.769 71.3073 271.499C71.5039 272.02 71.6231 272.524 71.6649 273.01C71.7102 273.495 71.6775 273.945 71.5666 274.359C71.4593 274.772 71.2708 275.131 71.001 275.435C70.7325 275.743 70.3821 275.978 69.9497 276.141L64.3999 278.236L63.4771 275.79L64.6147 275.361L64.5907 275.297C64.2594 275.256 63.9553 275.159 63.6783 275.004C63.4027 274.853 63.1595 274.643 62.9488 274.374C62.7395 274.109 62.5632 273.787 62.4201 273.408ZM64.4241 273.569C64.5298 273.849 64.6814 274.079 64.8791 274.259C65.0781 274.443 65.3022 274.565 65.5515 274.625C65.8043 274.684 66.0637 274.663 66.3295 274.562L67.1056 274.269C67.0385 274.21 66.969 274.133 66.8969 274.038C66.8263 273.948 66.7533 273.846 66.6782 273.732C66.603 273.619 66.5301 273.501 66.4593 273.378C66.3886 273.255 66.3216 273.136 66.2584 273.022C66.1271 272.792 65.988 272.606 65.8409 272.463C65.6952 272.324 65.5394 272.233 65.3735 272.19C65.2125 272.15 65.0434 272.163 64.8662 272.23C64.5969 272.331 64.4275 272.505 64.3579 272.75C64.2897 272.998 64.3118 273.271 64.4241 273.569ZM63.7513 285.786C63.6337 285.474 63.5475 285.171 63.4928 284.876C63.4345 284.582 63.4069 284.321 63.41 284.093L65.5138 283.955C65.525 284.242 65.5623 284.492 65.6257 284.702C65.6905 284.917 65.7917 285.083 65.9294 285.201C66.0648 285.324 66.249 285.388 66.4817 285.394L66.7644 285.402L74.1319 279.306L75.159 282.028L69.9006 285.731L69.9327 285.816L76.3346 285.143L77.3678 287.881L67.2596 288.179C66.7569 288.199 66.2839 288.136 65.8407 287.992C65.3953 287.852 64.9943 287.605 64.6375 287.249C64.2821 286.898 63.9867 286.41 63.7513 285.786ZM29.6432 216.872C30.0196 216.69 30.2631 216.418 30.3737 216.056C30.4891 215.697 30.4498 215.26 30.2559 214.746C30.1275 214.406 29.9762 214.139 29.802 213.946C29.6278 213.752 29.4413 213.628 29.2426 213.574C29.0474 213.518 28.8499 213.526 28.6501 213.597C28.4845 213.652 28.353 213.738 28.2557 213.855C28.1597 213.977 28.09 214.124 28.0465 214.299C28.0078 214.475 27.9905 214.676 27.9945 214.901C27.9985 215.126 28.0208 215.373 28.0612 215.641L28.2017 216.657C28.288 217.24 28.3113 217.774 28.2715 218.258C28.2331 218.746 28.132 219.181 27.9683 219.563C27.806 219.948 27.5768 220.28 27.2808 220.557C26.9848 220.835 26.6195 221.058 26.1849 221.226C25.4961 221.482 24.8405 221.531 24.2181 221.373C23.5958 221.215 23.0318 220.863 22.5261 220.317C22.0218 219.775 21.5985 219.05 21.2561 218.143C20.9124 217.232 20.7492 216.386 20.7667 215.607C20.7841 214.827 21.0001 214.144 21.4148 213.558C21.8294 212.973 22.46 212.514 23.3065 212.182L24.2574 214.702C23.9146 214.856 23.6577 215.06 23.4866 215.315C23.3156 215.57 23.2246 215.865 23.2138 216.201C23.2043 216.541 23.2725 216.904 23.4182 217.29C23.552 217.645 23.7135 217.928 23.9028 218.14C24.0935 218.355 24.2992 218.498 24.5202 218.569C24.7411 218.639 24.9621 218.635 25.1832 218.555C25.3874 218.474 25.5387 218.344 25.6372 218.165C25.7392 217.985 25.7946 217.746 25.8033 217.447C25.8169 217.15 25.7948 216.786 25.7372 216.354L25.5737 215.116C25.4341 214.092 25.503 213.218 25.7803 212.494C26.0612 211.768 26.6152 211.252 27.4423 210.944C28.1143 210.686 28.7726 210.644 29.4171 210.818C30.0616 210.992 30.6474 211.347 31.1743 211.885C31.7012 212.423 32.1205 213.105 32.4321 213.931C32.7504 214.774 32.883 215.56 32.83 216.289C32.7819 217.02 32.5657 217.654 32.1816 218.192C31.7975 218.729 31.2683 219.129 30.5941 219.392L29.6432 216.872ZM24.815 227.621C24.4927 226.767 24.3829 225.967 24.4855 225.219C24.593 224.474 24.8975 223.817 25.3991 223.247C25.9055 222.68 26.5929 222.232 27.4611 221.904C28.3046 221.586 29.1046 221.474 29.8611 221.569C30.6212 221.663 31.291 221.947 31.8706 222.42C32.4536 222.893 32.9003 223.54 33.2106 224.362C33.4299 224.943 33.5402 225.509 33.5413 226.059C33.5425 226.609 33.4321 227.127 33.2101 227.611C32.9881 228.096 32.6534 228.534 32.206 228.925C31.7621 229.316 31.2053 229.637 30.5355 229.89L29.887 230.135L27.2088 223.038L28.7185 222.468L30.4839 227.146C30.759 227.038 30.9805 226.88 31.1486 226.671C31.3166 226.461 31.4187 226.222 31.455 225.954C31.4961 225.687 31.4625 225.41 31.3542 225.123C31.2445 224.833 31.0806 224.597 30.8626 224.416C30.6481 224.234 30.4038 224.118 30.1297 224.067C29.8591 224.015 29.5825 224.039 29.2999 224.137L27.7636 224.717C27.4305 224.843 27.1628 225.019 26.9607 225.245C26.7621 225.47 26.6392 225.729 26.5919 226.022C26.5447 226.315 26.5839 226.628 26.7096 226.961C26.7965 227.192 26.9073 227.389 27.042 227.552C27.1767 227.716 27.3314 227.842 27.5063 227.93C27.6812 228.018 27.8717 228.061 28.0778 228.06L28.9094 230.473C28.3369 230.576 27.7886 230.534 27.2646 230.347C26.7455 230.162 26.2738 229.84 25.8495 229.381C25.4287 228.92 25.0838 228.334 24.815 227.621ZM25.137 237.792C24.8441 237.016 24.7014 236.311 24.709 235.676C24.7165 235.042 24.8486 234.496 25.1052 234.039C25.3618 233.582 25.7156 233.232 26.1664 232.989L27.2334 235.398C27.0842 235.507 26.971 235.646 26.8938 235.817C26.8179 235.992 26.7844 236.193 26.7933 236.42C26.8036 236.651 26.8608 236.905 26.9652 237.181C27.1297 237.617 27.3717 237.937 27.6913 238.14C28.0088 238.348 28.4297 238.353 28.9542 238.155L30.3895 237.614L30.3554 237.523C30.065 237.515 29.7811 237.444 29.5038 237.31C29.2264 237.176 28.9722 236.974 28.7411 236.705C28.5113 236.44 28.3209 236.107 28.1697 235.706C27.945 235.111 27.8773 234.513 27.9665 233.913C28.0606 233.314 28.3438 232.756 28.8162 232.238C29.2935 231.721 29.9946 231.289 30.9196 230.94C31.8729 230.58 32.7154 230.436 33.447 230.508C34.1822 230.579 34.7916 230.804 35.2752 231.185C35.7601 231.569 36.1103 232.046 36.3256 232.616C36.4874 233.045 36.5514 233.44 36.5176 233.801C36.4886 234.164 36.3964 234.488 36.241 234.774C36.0855 235.059 35.9031 235.3 35.6939 235.496L35.7219 235.571L37.12 235.043L38.097 237.632L29.8999 240.725C29.2088 240.986 28.5603 241.033 27.9544 240.865C27.3484 240.696 26.8055 240.347 26.3256 239.815C25.8421 239.285 25.4459 238.611 25.137 237.792ZM30.4032 235.896C30.5223 236.211 30.7072 236.449 30.958 236.61C31.2088 236.77 31.5129 236.852 31.8702 236.854C32.2276 236.857 32.6242 236.776 33.0601 236.612C33.5031 236.445 33.8613 236.241 34.1348 236C34.4132 235.761 34.5964 235.496 34.6844 235.203C34.7738 234.914 34.759 234.612 34.64 234.297C34.5183 233.974 34.3267 233.735 34.0652 233.579C33.8038 233.422 33.4898 233.346 33.1231 233.351C32.7614 233.358 32.3625 233.444 31.9266 233.608C31.4907 233.773 31.1389 233.972 30.8712 234.207C30.6035 234.442 30.4278 234.7 30.3441 234.983C30.2618 235.269 30.2815 235.573 30.4032 235.896ZM36.0697 246.309L40.7105 244.557L41.6894 247.151L33.5242 250.233L32.5894 247.756L34.1097 247.182L34.0776 247.097C33.5097 247.105 32.9965 246.946 32.5378 246.621C32.0841 246.299 31.7415 245.831 31.5101 245.218C31.3001 244.661 31.2432 244.124 31.3392 243.606C31.4352 243.088 31.6676 242.626 32.0365 242.219C32.409 241.812 32.9029 241.49 33.5182 241.253L38.7224 239.289L39.7034 241.889L35.0095 243.66C34.5678 243.831 34.2629 244.08 34.0946 244.406C33.9264 244.733 33.9172 245.095 34.067 245.492C34.1646 245.75 34.3089 245.961 34.4999 246.124C34.6957 246.289 34.9263 246.39 35.1915 246.428C35.4615 246.467 35.7543 246.428 36.0697 246.309ZM34.1486 251.887L42.3138 248.806L43.2948 251.406L35.1296 254.487L34.1486 251.887ZM43.7569 249.749C43.6191 249.384 43.6213 249.025 43.7633 248.672C43.9088 248.317 44.1535 248.075 44.4973 247.946C44.8375 247.817 45.1776 247.839 45.5175 248.01C45.861 248.18 46.1016 248.447 46.2394 248.812C46.3785 249.181 46.3746 249.541 46.2277 249.892C46.0857 250.245 45.8445 250.486 45.5043 250.614C45.1606 250.744 44.8169 250.724 44.4734 250.554C44.1348 250.386 43.896 250.118 43.7569 249.749ZM35.754 256.141L43.9192 253.06L44.8521 255.532L43.353 256.098L43.3871 256.188C43.9474 256.171 44.4474 256.31 44.8869 256.606C45.3264 256.902 45.6518 257.329 45.8631 257.889C46.0771 258.456 46.1151 258.997 45.9769 259.51C45.8388 260.024 45.5459 260.428 45.0983 260.722L45.1304 260.808C45.6734 260.777 46.1738 260.928 46.6316 261.261C47.0929 261.593 47.4373 262.06 47.6646 262.663C47.9562 263.436 47.9448 264.156 47.6306 264.826C47.3199 265.494 46.7339 265.99 45.8727 266.315L40.3761 268.389L39.3951 265.79L44.2964 263.94C44.7039 263.786 44.9746 263.565 45.1083 263.275C45.2456 262.985 45.2513 262.673 45.1256 262.34C44.9905 261.982 44.7673 261.744 44.4558 261.627C44.1492 261.512 43.801 261.528 43.4112 261.675L38.5365 263.515L37.5936 261.016L42.5215 259.156C42.9007 259.013 43.1613 258.798 43.3035 258.509C43.4456 258.221 43.4532 257.908 43.3261 257.571C43.2405 257.345 43.1101 257.165 42.9347 257.033C42.7628 256.899 42.5589 256.82 42.323 256.796C42.0885 256.775 41.8365 256.816 41.5672 256.917L36.735 258.741L35.754 256.141ZM40.984 270L49.1492 266.919L50.1301 269.518L41.965 272.599L40.984 270ZM50.5922 267.862C50.4544 267.497 50.4566 267.138 50.5986 266.785C50.7442 266.43 50.9888 266.188 51.3326 266.058C51.6728 265.93 52.0129 265.951 52.3528 266.123C52.6963 266.292 52.937 266.56 53.0747 266.925C53.2138 267.294 53.2099 267.653 53.063 268.004C52.921 268.358 52.6799 268.598 52.3396 268.727C51.9959 268.856 51.6523 268.836 51.3088 268.666C50.9701 268.499 50.7313 268.23 50.5922 267.862ZM43.8756 278.129C43.5533 277.275 43.4434 276.474 43.546 275.727C43.6536 274.982 43.9581 274.325 44.4596 273.755C44.9661 273.187 45.6534 272.739 46.5217 272.412C47.3651 272.093 48.1651 271.982 48.9217 272.077C49.6818 272.171 50.3516 272.454 50.9311 272.928C51.5142 273.4 51.9609 274.047 52.2712 274.87C52.4905 275.451 52.6007 276.016 52.6019 276.567C52.603 277.117 52.4926 277.634 52.2706 278.119C52.0486 278.603 51.7139 279.041 51.2665 279.433C50.8227 279.823 50.2659 280.145 49.5961 280.397L48.9475 280.642L46.2694 273.545L47.7791 272.976L49.5444 277.654C49.8195 277.546 50.0411 277.387 50.2091 277.178C50.3772 276.969 50.4793 276.73 50.5155 276.461C50.5567 276.195 50.523 275.918 50.4147 275.631C50.305 275.34 50.1412 275.105 49.9231 274.924C49.7086 274.741 49.4643 274.625 49.1902 274.575C48.9197 274.523 48.6431 274.546 48.3604 274.645L46.8242 275.225C46.491 275.35 46.2234 275.526 46.0213 275.752C45.8227 275.977 45.6997 276.236 45.6525 276.529C45.6052 276.822 45.6444 277.136 45.7701 277.469C45.8571 277.699 45.9679 277.896 46.1025 278.06C46.2372 278.224 46.392 278.349 46.5668 278.437C46.7417 278.525 46.9322 278.569 47.1384 278.568L47.97 280.981C47.3974 281.083 46.8491 281.041 46.3252 280.854C45.8061 280.67 45.3344 280.348 44.91 279.888C44.4892 279.428 44.1444 278.841 43.8756 278.129ZM51.6309 284.116L46.9742 285.873L45.9932 283.274L54.1584 280.192L55.0913 282.664L53.5922 283.23L53.6263 283.32C54.1942 283.312 54.7021 283.473 55.1502 283.802C55.6017 284.129 55.9412 284.595 56.1685 285.197C56.3852 285.771 56.4437 286.318 56.3442 286.837C56.2495 287.359 56.016 287.823 55.6435 288.231C55.276 288.641 54.785 288.96 54.1705 289.188L48.9663 291.152L47.9853 288.552L52.6792 286.781C53.1342 286.613 53.4451 286.364 53.612 286.034C53.7802 285.708 53.7868 285.339 53.6316 284.928C53.5286 284.655 53.3775 284.436 53.1781 284.273C52.9835 284.111 52.755 284.016 52.4925 283.985C52.2313 283.958 51.9441 284.002 51.6309 284.116ZM59.4781 294.289L57.5644 295.011L55.6205 289.86L57.5342 289.138L59.4781 294.289ZM59.8977 289.479L60.8787 292.078L53.3248 294.929C53.1653 294.989 53.0453 295.062 52.9648 295.15C52.8892 295.239 52.8488 295.341 52.8438 295.456C52.8422 295.57 52.8675 295.696 52.9197 295.835C52.9572 295.934 53.0055 296.035 53.0646 296.138C53.1287 296.244 53.1785 296.322 53.2141 296.373L51.486 297.475C51.4038 297.364 51.2933 297.205 51.1545 296.999C51.0171 296.795 50.8825 296.541 50.7506 296.234C50.4922 295.635 50.3658 295.086 50.3714 294.586C50.3819 294.088 50.5262 293.655 50.8043 293.287C51.0837 292.922 51.5012 292.639 52.0568 292.438L59.8977 289.479ZM53.0646 302.478C52.7409 301.621 52.6382 300.817 52.7563 300.068C52.8793 299.322 53.1934 298.663 53.6985 298.091C54.2085 297.522 54.8816 297.08 55.718 296.764C56.5579 296.447 57.3555 296.335 58.1107 296.426C58.8707 296.52 59.5419 296.807 60.1241 297.288C60.7112 297.771 61.1666 298.441 61.4902 299.299C61.8139 300.156 61.9142 300.959 61.7912 301.705C61.673 302.454 61.359 303.113 60.849 303.682C60.3439 304.254 59.6714 304.698 58.8315 305.015C57.9951 305.33 57.1969 305.441 56.4368 305.347C55.6816 305.256 55.0105 304.969 54.4234 304.486C53.8412 304.005 53.3882 303.336 53.0646 302.478ZM55.0321 301.754C55.1498 302.066 55.3452 302.294 55.6181 302.438C55.8911 302.582 56.219 302.646 56.6021 302.631C56.9864 302.62 57.4019 302.53 57.8484 302.361C58.302 302.19 58.6769 301.982 58.9729 301.737C59.2704 301.495 59.474 301.23 59.5838 300.941C59.6935 300.653 59.6896 300.353 59.5719 300.041C59.4502 299.718 59.2515 299.482 58.9759 299.331C58.7016 299.183 58.3723 299.115 57.9879 299.126C57.6049 299.141 57.1866 299.235 56.733 299.406C56.2865 299.574 55.9145 299.779 55.6171 300.021C55.321 300.266 55.1187 300.535 55.0103 300.827C54.9031 301.123 54.9104 301.432 55.0321 301.754Z" fill="#3A506B"/>
</svg>
