<svg width="1500" height="1500" viewBox="0 0 1500 1500" fill="none" xmlns="http://www.w3.org/2000/svg">
<circle cx="749.5" cy="748.5" r="694.5" fill="#3A506B"/>
<path d="M1171.26 1163.49C1089.27 1247.23 984.226 1304.69 869.49 1328.59C754.754 1352.48 635.505 1341.72 526.898 1297.68C418.292 1253.64 325.232 1178.3 259.547 1081.24C193.862 984.175 158.517 869.777 158.006 752.581C157.494 635.385 191.838 520.682 256.673 423.052C321.508 325.422 413.906 249.272 522.124 204.282C630.341 159.292 749.492 147.492 864.432 170.383C979.372 193.273 1084.91 249.821 1167.64 332.838L1093.2 407.011C1025.18 338.755 938.411 292.262 843.908 273.442C749.405 254.621 651.439 264.323 562.463 301.314C473.487 338.304 397.518 400.914 344.211 481.185C290.904 561.456 262.667 655.764 263.088 752.122C263.508 848.48 292.568 942.538 346.574 1022.34C400.58 1102.14 477.093 1164.09 566.389 1200.3C655.685 1236.51 753.731 1245.36 848.066 1225.71C942.402 1206.07 1028.77 1158.82 1096.18 1089.97L1171.26 1163.49Z" fill="#D3D3D3"/>
<path d="M474.966 483.693C528.02 429.1 596.171 391.598 670.68 375.995C745.19 360.392 822.661 367.4 893.161 396.119C963.661 424.839 1023.98 473.962 1066.37 537.189C1108.77 600.416 1131.31 674.865 1131.12 750.99C1130.92 827.116 1107.99 901.447 1065.27 964.453C1022.54 1027.46 961.973 1076.27 891.325 1104.62C820.677 1132.98 743.17 1139.58 668.743 1123.59C594.315 1107.61 526.36 1069.75 473.59 1014.88L548.549 942.789C586.957 982.722 636.416 1010.27 690.587 1021.91C744.757 1033.55 801.168 1028.74 852.588 1008.1C904.007 987.467 948.091 951.942 979.186 906.085C1010.28 860.227 1026.97 806.127 1027.11 750.721C1027.26 695.315 1010.85 641.129 979.992 595.111C949.135 549.092 905.236 513.34 853.924 492.437C802.612 471.534 746.227 466.433 691.997 477.789C637.767 489.146 588.165 516.441 549.551 556.175L474.966 483.693Z" fill="#D3D3D3"/>
<path d="M771.999 1010.95L772 1010.95L964.989 899.528C964.989 899.528 964.989 899.528 964.99 899.528C978.602 891.669 986.99 877.144 986.99 861.423V638.577C986.99 622.859 978.604 608.333 964.99 600.472C964.989 600.472 964.989 600.472 964.989 600.472L772 489.05L750.522 526.25L772 489.05C758.387 481.19 741.614 481.19 728 489.05L749.5 526.289L728 489.05L535.01 600.472L535.01 600.472C521.397 608.332 513.01 622.857 513.01 638.577V861.423C513.01 877.14 521.395 891.667 535.01 899.528C535.011 899.528 535.011 899.528 535.011 899.528L728 1010.95L728.001 1010.95C741.614 1018.81 758.386 1018.81 771.999 1010.95Z" fill="#D9D9D9" stroke="#3A506B" stroke-width="86"/>
<path d="M864 750C864 812.96 812.96 864 750 864C687.04 864 636 812.96 636 750C636 687.04 687.04 636 750 636C812.96 636 864 687.04 864 750Z" fill="#3A506B"/>
</svg>
